<?xml version="1.0" encoding="UTF-8"?>
<svg viewBox="0 0 89 89" xmlns="http://www.w3.org/2000/svg">
 <path d="m53.526 67.134c-0.25393-0.2954-1.3278-2.1977-2.3865-4.2273l-1.9248-3.6902 1.9116-3.8289c2.0966-4.1994 2.587-4.9031 3.4167-4.9031s1.1908 0.96226 1.1908 3.2023v2.0151h5.8487c3.3533 0 6.4403-0.14895 7.2352-0.34911 1.7788-0.4479 3.3291-1.9072 3.7715-3.5501 0.67572-2.5094 0.47607-2.9489-7.9545-17.508-1.393-2.4055-2.5326-4.7184-2.5326-5.1397 0-1.05 0.47207-1.5365 2.6998-2.7823 1.6226-0.9074 2.0261-1.0197 2.6386-0.7346 0.45453 0.21161 1.5776 1.8388 3.0241 4.3816 1.2656 2.2248 3.8428 6.7098 5.7272 9.9668 2.0272 3.5038 3.578 6.5548 3.7981 7.4721 0.57032 2.3774 0.25019 5.9138-0.71969 7.9502-1.0271 2.1564-3.1041 4.3341-5.0971 5.344-2.8889 1.4639-4.5241 1.7006-11.752 1.7006h-6.6874v2.1232c0 1.1678-0.08383 2.3417-0.18629 2.6087-0.24877 0.64829-1.4463 0.61771-2.0217-0.05162zm-32.626-4.9689c-1.7437-0.42754-4.245-1.9234-5.6803-3.3969-2.6329-2.7031-3.742-6.2896-3.1164-10.078 0.46608-2.8222 1.1798-4.3924 4.604-10.129 1.5464-2.5905 2.8116-4.8216 2.8116-4.9579s-0.72962-0.65964-1.6214-1.1629c-2.1139-1.193-2.5134-1.675-2.072-2.4999 0.18645-0.34839 0.64488-0.64725 1.0187-0.66415 1.5934-0.072 6.0195 0.0609 7.4839 0.22472l1.5868 0.17751 2.4797 3.6749c2.5351 3.757 2.9324 4.8969 1.8991 5.4499-0.4547 0.24335-1.0185 0.07842-2.5991-0.76037l-2.0184-1.0711-0.43349 0.69444c-1.2495 2.0016-4.6847 7.9388-5.3109 9.1789-1.0614 2.1019-0.99667 4.3917 0.16956 6.0016 1.6618 2.294 2.0919 2.3701 14.404 2.5458 12.708 0.18138 11.714-0.14831 11.714 3.8855 0 2.1964-0.08016 2.5821-0.59363 2.8569-0.68406 0.36609-23.243 0.39266-24.726 0.02912zm6.5689-34.944c-2.0426-1.1997-2.4256-1.582-2.4256-2.4211 0-0.41277 2.5175-5.1236 5.5973-10.474 6.0813-10.565 7.0984-11.901 10.215-13.426 1.6738-0.81871 2.1188-0.89762 5.0717-0.8994 3.0835-0.00187 3.3358 0.04818 5.3219 1.0555 3.0456 1.5447 4.993 3.8493 8.3209 9.8468 1.5192 2.7379 2.9002 5.163 3.069 5.3892 0.24625 0.32992 0.63767 0.20104 1.9807-0.65217 2.4414-1.551 3.7658-1.3292 3.2767 0.54859-0.21296 0.8175-4.3364 7.3106-4.8404 7.6221s-8.6534 0.69287-9.4331 0.44538c-0.43165-0.137-0.65126-0.46175-0.65126-0.96304 0-0.59141 0.39851-1.0052 1.8276-1.8975 1.0052-0.62763 1.8338-1.2642 1.8414-1.4147 0.0187-0.36871-5.0771-9.2808-6.0484-10.578-0.86966-1.1616-2.8388-2.1782-4.219-2.1782-1.2393 0-3.1929 0.93993-4.1971 2.0194-0.45164 0.48548-3.0454 4.7497-5.764 9.476s-5.1721 8.766-5.4523 8.977c-0.78489 0.59094-1.9434 0.43303-3.4909-0.47582z"/>
 <path d="m53.111 47.225h-14.015v-2.9492c1.071-0.77525 2.1439-1.5985 3.2189-2.4696s1.9361-1.6224 2.5835-2.2538c0.96706-0.93509 1.6544-1.7503 2.062-2.4456s0.6114-1.3827 0.61141-2.062c-1e-5 -0.81521-0.26176-1.4446-0.78524-1.8882s-1.2768-0.66534-2.2598-0.66536c-0.7353 2e-5 -1.5086 0.15187-2.3198 0.45556s-1.5645 0.69135-2.2598 1.1629h-0.38363v-3.9682c0.56745-0.24775 1.4046-0.49551 2.5116-0.74329s2.2159-0.37162 3.3268-0.37164c2.2378 2e-5 3.9442 0.46957 5.1191 1.4086s1.7623 2.2678 1.7623 3.9862c-2e-5 1.1269-0.28174 2.1979-0.84519 3.2129s-1.4246 2.062-2.5835 3.141c-0.72731 0.67136-1.4586 1.2888-2.1939 1.8522s-1.2588 0.95708-1.5705 1.1809h8.0203v3.4167z"/>
 <path d="m24.734 76.7c-2e-5 0.79924-0.13988 1.5805-0.4196 2.3438s-0.67936 1.4046-1.1988 1.9242c-0.71133 0.70333-1.5046 1.2348-2.3797 1.5945s-1.9641 0.53949-3.2669 0.53949h-2.8652v5.8144h-4.6036v-17.851h7.5767c1.1349 2e-5 2.092 0.09793 2.8712 0.29372s1.4686 0.48955 2.068 0.88116c0.71929 0.47156 1.2688 1.075 1.6484 1.8103s0.56943 1.6184 0.56945 2.6494zm-4.7594 0.10789c-1e-5 -0.5035-0.13588-0.93708-0.40761-1.3007s-0.58745-0.6174-0.94709-0.76127c-0.47955-0.1918-0.9471-0.2977-1.4026-0.3177s-1.063-0.02995-1.8222-0.02997h-0.79124v5.3469h1.3187c0.78324 1e-5 1.4286-0.04794 1.9361-0.14386s0.93309-0.28771 1.2768-0.57545c0.2957-0.25574 0.5095-0.56145 0.64138-0.91712s0.1978-0.78923 0.19781-1.3008zm20.92 12.108h-12.912v-17.851h12.912v3.4527h-8.332v3.081h7.7326v3.4527h-7.7326v4.4118h8.332v3.4527zm19.877 0h-4.6036v-7.8644h-6.7975v7.8644h-4.6036v-17.851h4.6036v6.5337h6.7975v-6.5337h4.6036v17.851zm21.435-8.9074c-2e-5 1.6624-0.37965 3.151-1.1389 4.4657s-1.7184 2.3238-2.8772 3.0271c-0.87118 0.52749-1.8263 0.89514-2.8652 1.1029s-2.2698 0.3117-3.6924 0.3117h-6.294v-17.851h6.4738c1.4546 2e-5 2.7094 0.12191 3.7644 0.36565 1.055 0.24379 1.9421 0.58945 2.6614 1.037 1.2308 0.75129 2.1999 1.7643 2.9072 3.0391s1.061 2.7753 1.061 4.5017zm-4.7594-0.03597c-1e-5 -1.1749-0.21381-2.1799-0.64138-3.0151s-1.105-1.4886-2.032-1.9601c-0.47156-0.23176-0.95309-0.38961-1.4446-0.47354s-1.2328-0.12586-2.2239-0.12588h-1.1629v11.173h1.1629c1.0949 0 1.8982-0.04995 2.4097-0.14985s1.011-0.28173 1.4986-0.54548c0.83918-0.47953 1.4546-1.1209 1.8462-1.9242s0.58742-1.7963 0.58743-2.9791z"/>
</svg>
