<?xml version='1.0' encoding='utf-8'?>
<svg xmlns="http://www.w3.org/2000/svg" enable-background="new 0 0 91.4 50.15" version="1.1" viewBox="0 0 91.4 50.15">
<path d="m82 22.8c1.033-1.033 2.467-2.633 4.3-4.8 2.167-2.567 3.25-4.083 3.25-4.55 0-0.6 0.134-0.65 0.4-0.15 0.233 0.467 0.25 0.983 0.05 1.55-0.134 0.367-0.283 1.683-0.45 3.95-0.166 2.067-0.333 3.2-0.5 3.4-0.633 0.767-2.633 2.45-6 5.05-0.399 0.333-1.7 1.75-3.899 4.25-1.767 2.033-3.084 3.1-3.95 3.2-1.033 0.166-2.584 0-4.65-0.5-0.566-0.167-2.233-0.65-5-1.45-1.6-0.467-3.684-1.217-6.25-2.25-2.8-1.167-4.866-2.134-6.2-2.9l-0.6-0.149 18-1.25c6.732-1.368 10.565-2.501 11.499-3.401z" clip-rule="evenodd" fill="#BAAB98" fill-rule="evenodd"/>
<path d="m82.6 22.7c0.534-0.7 1.7-2.017 3.5-3.95 1.801-2 3.117-3.383 3.95-4.15l-0.05 0.25c-0.134 0.367-0.283 1.683-0.45 3.95-0.166 2.067-0.333 3.2-0.5 3.4-0.434 0.6-0.899 1.2-1.399 1.8-0.934 1.167-2.017 2.366-3.25 3.6-4.634 4.534-7.7 6.9-9.2 7.101l-0.101 0.049c-0.433-0.5-0.833-1.483-1.199-2.95-0.4-1.5-0.7-2.383-0.9-2.649 5.565-3.234 8.766-5.384 9.599-6.451z" clip-rule="evenodd" fill="#D9D2BF" fill-rule="evenodd"/>
<path d="m45.4 12.75c-1.9 0.633-3.833 1.267-5.8 1.9-3.9 1.233-5.934 1.85-6.1 1.85-0.4 0-1.667-0.4-3.8-1.2-0.233-0.1-1.367-0.8-3.4-2.1 1.767-2.333 3.767-4.45 6-6.35 2.267-1.934 5.467-4.05 9.6-6.35 0.033 0.967 0.133 2.083 0.3 3.35 0.3 2.467 0.8 4.367 1.5 5.7l1.7 3.2z" clip-rule="evenodd" fill="#CCBEAF" fill-rule="evenodd"/>
<path d="m71.25 19.4c-1.634-0.566-5.9-2.233-12.8-5l-9.851-4c0.201-1.367 0.301-2.217 0.301-2.55 0-0.2 0.6-0.4 1.8-0.6 0.6-0.067 1.2-0.133 1.8-0.2-0.566 0.2-0.816 0.617-0.75 1.25 0.066 0.833 0.783 1.733 2.15 2.7 1.899 1.333 4.949 2.667 9.149 4 4.566 1.467 6.9 1.617 7 0.45 0.233-2.1 1.25-3.15 3.05-3.15 0.801 0.034 1.733 0.517 2.801 1.45-0.667 0.033-1.2 0.2-1.601 0.5-0.8 0.6-0.583 1.617 0.65 3.05 1.434 1.633 1.684 2.583 0.75 2.85-0.765 0.267-2.249 0.017-4.449-0.75z" clip-rule="evenodd" fill="#fff" fill-rule="evenodd"/>
<path d="m52.35 7.9c-0.933-0.066-1.416 0.133-1.449 0.6-0.034 0.267 0.149 0.833 0.55 1.7l1.25 0.5c0.934 0.333 1.7 0.483 2.3 0.45 0.9-0.066 1.116-0.583 0.65-1.55-0.535-0.967-1.634-1.533-3.301-1.7zm21.25 8.75l1.25 0.5c0.934 0.333 1.717 0.483 2.351 0.45 0.899-0.067 1.116-0.617 0.649-1.65-0.466-1.067-1.533-1.667-3.199-1.8-1-0.1-1.567 0.15-1.7 0.75-0.135 0.533 0.082 1.117 0.649 1.75zm12.85-5.55c2.366 0.867 3.566 1.667 3.6 2.4s-0.483 1.833-1.55 3.3c-1.134 1.467-1.767 2.3-1.9 2.5-0.233 0.4-0.649 0.9-1.25 1.5l-42.9-10.35c-0.434-1.2-0.784-3.067-1.05-5.6-0.133-1.267-0.217-2.417-0.25-3.45l0.75-0.9 44.55 10.6z" clip-rule="evenodd" fill="#DECFC0" fill-rule="evenodd"/>
<path d="m82.75 23.55c-2.333 2.566-3.667 4.017-4 4.351-0.6 0.6-1.75 1.233-3.45 1.899-1.633 0.634-2.8 0.934-3.5 0.9-2.934 0-6.616-0.9-11.05-2.7-2.434-1-7.934-3.133-16.5-6.4l-12.1-4.6c-0.9-0.333-1.35-0.517-1.35-0.55h0.25l2.2-2.1c1.733-1.6 3.25-2.883 4.55-3.85 1.867-1.433 3.217-2.267 4.05-2.5 1.4-0.4 3.466-0.233 6.2 0.5 1.834 0.5 7.2 2.1 16.101 4.8 8.233 2.5 13.033 3.9 14.399 4.2 1.9 0.4 3.7 0.867 5.4 1.4s2.416 0.867 2.149 1c-0.165 0.1-1.283 1.317-3.349 3.65z" clip-rule="evenodd" fill="#F0E3D5" fill-rule="evenodd"/>
<path d="m88.2 11.05c2.566 1.034 3.6 2.15 3.1 3.35-1.2 1.434-2.1 2.55-2.7 3.35-4.6 6.467-8.517 10.65-11.75 12.55-2.033 1.233-4.333 1.7-6.899 1.4l-3.251-0.85-42.25-16.25c-1.034-0.633 0.117-2.167 3.45-4.6 0.533-0.4 2.717-2.2 6.55-5.4 3.767-3 6.066-4.533 6.9-4.6 1.133-0.067 8.45 1.45 21.95 4.55 13.8 3.2 22.1 5.367 24.9 6.5zm0.8 3.7c0.7-0.967-0.25-1.983-2.85-3.05-1.934-0.767-4.301-1.434-7.101-2-1.366-0.267-8.066-1.85-20.1-4.75-10.8-2.6-16.534-3.867-17.2-3.8-0.733 0.033-2.683 1.333-5.85 3.9-3.267 2.733-5.133 4.284-5.6 4.65-2.966 2.167-3.983 3.533-3.05 4.1l37.451 14.7 4.05 0.85c3.1 0.334 5.616-0.116 7.55-1.35 1.867-1.167 4.334-3.45 7.4-6.85 2.4-2.633 4.166-4.767 5.3-6.4z" clip-rule="evenodd" fill="#fff" fill-rule="evenodd"/>
<path d="m9.35 18.25c2.533 0.067 3.816 1.95 3.85 5.65 0 1.4-0.2 2.633-0.6 3.7-0.434 1.101-0.934 1.601-1.5 1.5-0.867-0.133-1.767-0.166-2.7-0.1-0.833 0.066-1.333 0.066-1.5 0-0.3-0.134-0.767-0.417-1.4-0.85l-0.8-0.6-3.75-8 8.4-1.3z" clip-rule="evenodd" fill="#BAAB98" fill-rule="evenodd"/>
<path d="m7.3 29.05l-0.4-0.05c-0.3-0.134-0.767-0.417-1.4-0.85l-0.8-0.6-3.75-8 2.1-0.35 3.25 1.35c0 0.867 0.1 2.133 0.3 3.8 0.2 1.9 0.433 3.466 0.7 4.7z" clip-rule="evenodd" fill="#D9D2BF" fill-rule="evenodd"/>
<path d="m7.45 23.3l8.4-1.3c2.566 0.067 3.867 1.967 3.9 5.7 0 1.399-0.217 2.633-0.65 3.7-0.434 1.1-0.934 1.6-1.5 1.5-0.833-0.167-1.733-0.217-2.7-0.15-0.8 0.066-1.3 0.066-1.5 0-0.3-0.134-0.75-0.417-1.35-0.85l-0.8-0.601-3.8-7.999z" clip-rule="evenodd" fill="#BAAB98" fill-rule="evenodd"/>
<path d="m13.8 32.8l-0.4-0.05c-0.3-0.134-0.75-0.417-1.35-0.85l-0.8-0.601-3.8-8 2.15-0.299 3.2 1.35c0 0.8 0.1 2.067 0.3 3.8 0.2 1.867 0.433 3.416 0.7 4.65z" clip-rule="evenodd" fill="#D9D2BF" fill-rule="evenodd"/>
<path d="m20.1 36.3l-0.9-0.649-4.05-8.601 9.05-1.4c2.767 0.067 4.167 2.1 4.2 6.1 0 1.5-0.233 2.833-0.7 4-0.467 1.2-1 1.733-1.6 1.6-0.9-0.166-1.867-0.199-2.9-0.1-0.867 0.066-1.417 0.05-1.65-0.05-0.333-0.134-0.817-0.433-1.45-0.9z" clip-rule="evenodd" fill="#BAAB98" fill-rule="evenodd"/>
<path d="m22 37.3l-0.45-0.1c-0.333-0.134-0.816-0.434-1.45-0.9l-0.9-0.649-4.05-8.601 2.25-0.35 3.55 1.45c0 0.866 0.1 2.233 0.3 4.1 0.233 2.033 0.483 3.717 0.75 5.05z" clip-rule="evenodd" fill="#D9D2BF" fill-rule="evenodd"/>
<path d="m32.15 29.2c2.833 0.066 4.25 2.149 4.25 6.25 0 1.566-0.233 2.934-0.7 4.1-0.467 1.233-1.017 1.783-1.65 1.65-0.933-0.167-1.933-0.2-3-0.101-0.867 0.067-1.417 0.051-1.65-0.05-0.333-0.133-0.833-0.434-1.5-0.899l-0.9-0.7-4.2-8.8 9.35-1.45z" clip-rule="evenodd" fill="#BAAB98" fill-rule="evenodd"/>
<path d="m29.85 41.15l-0.45-0.1c-0.333-0.133-0.833-0.434-1.5-0.899l-0.9-0.7-4.2-8.8 2.35-0.4 3.6 1.5c0 0.934 0.1 2.35 0.3 4.25 0.233 2.099 0.5 3.815 0.8 5.149z" clip-rule="evenodd" fill="#D9D2BF" fill-rule="evenodd"/>
<path d="m44.9 39.35c0 1.733-0.25 3.267-0.75 4.601-0.566 1.366-1.2 1.983-1.9 1.85-1.067-0.2-2.183-0.25-3.35-0.149-1 0.1-1.617 0.1-1.85 0-0.367-0.167-0.933-0.517-1.7-1.051l-1-0.75-4.7-9.949 10.45-1.602c3.167 0.1 4.767 2.45 4.8 7.05z" clip-rule="evenodd" fill="#BAAB98" fill-rule="evenodd"/>
<path d="m37.55 45.7l-0.5-0.05c-0.367-0.167-0.933-0.517-1.7-1.051l-1-0.75-4.7-9.949 2.65-0.4 4 1.7c0 1 0.117 2.566 0.35 4.7 0.267 2.333 0.567 4.267 0.9 5.8z" clip-rule="evenodd" fill="#D9D2BF" fill-rule="evenodd"/>
<path d="m61.2 31.55c2.833 0.101 4.033 1.634 3.6 4.601-0.233 1.6-0.833 3.816-1.8 6.649-0.1 0.834-0.816 1.4-2.15 1.7-1.133 0.267-2 0.283-2.6 0.05-0.366-0.133-0.917-0.467-1.65-1l-1-0.75-4.55-9.649 10.15-1.601z" clip-rule="evenodd" fill="#BAAB98" fill-rule="evenodd"/>
<path d="m58.75 44.65c-0.233 0-0.4-0.034-0.5-0.101-0.366-0.133-0.917-0.467-1.65-1l-1-0.75-4.55-9.649 2.55-0.4 3.95 1.6c0 1.034 0.117 2.584 0.351 4.65 0.233 2.3 0.516 4.184 0.849 5.65z" clip-rule="evenodd" fill="#D9D2BF" fill-rule="evenodd"/>
<path d="m61.65 44.25c0.3-1.5 0.583-3.4 0.85-5.7 0.233-2.166 0.35-3.733 0.35-4.7l3.801-1.1 2.5 0.8-4.451 9.25c-1.167 0.8-2.033 1.283-2.601 1.45h-0.449z" clip-rule="evenodd" fill="#D9D2BF" fill-rule="evenodd"/>
<path d="m49.55 34.9c3.4 0.1 4.834 1.866 4.3 5.3-0.3 1.866-1.033 4.416-2.199 7.649-0.101 0.967-0.934 1.65-2.5 2.051-1.367 0.3-2.417 0.316-3.15 0.05-0.4-0.2-1.033-0.601-1.9-1.2l-1.2-0.85-5.45-11.2 12.099-1.8z" clip-rule="evenodd" fill="#BAAB98" fill-rule="evenodd"/>
<path d="m44.1 48.75l-1.2-0.85-5.45-11.2 3.05-0.45 4.7 1.9c0 1.133 0.133 2.916 0.399 5.35 0.301 2.634 0.634 4.816 1 6.55l-0.6-0.1c-0.399-0.2-1.032-0.6-1.899-1.2z" clip-rule="evenodd" fill="#D9D2BF" fill-rule="evenodd"/>
<path d="m53.7 47.9c-1.367 0.899-2.384 1.449-3.05 1.649-0.167 0.033-0.367 0.033-0.601 0 0.4-1.7 0.75-3.899 1.05-6.6 0.267-2.4 0.4-4.217 0.4-5.45l4.55-1.25 3 0.95-5.349 10.701z" clip-rule="evenodd" fill="#D9D2BF" fill-rule="evenodd"/>
<path d="m43.4 21.4c13.466 4.867 21.517 7.95 24.15 9.25 2.4 1.199 3.184 2.149 2.351 2.85-1.667 0.7-2.917 1.25-3.75 1.65-6.733 3.366-11.95 5.333-15.65 5.899-2.467 0.4-4.983 0.233-7.55-0.5l-3.15-1.2-39.551-19.199c-0.933-0.633 0.667-1.417 4.8-2.35 3.1-0.833 5.867-1.583 8.3-2.25 4.767-1.233 7.583-1.783 8.45-1.65 1.2 0.2 8.4 2.7 21.6 7.5z" clip-rule="evenodd" fill="#DECFC0" fill-rule="evenodd"/>
<path d="m25.05 18.4c0.034-1.033 0.7-1.583 2-1.65 0.567 0 1.034 0.15 1.4 0.45-0.2 2.3-0.8 3.95-1.8 4.95-0.853 0.853-1.969 1.369-3.35 1.55 0.129-0.074 0.262-0.174 0.4-0.3 0.767-0.767 1.217-2.433 1.35-5z" clip-rule="evenodd" fill="#CCBEAF" fill-rule="evenodd"/>
<path d="m26.1 16.25v1.25c0.267 1.233-0.133 2.883-1.2 4.95-0.633 1.133-1.483 1.833-2.55 2.1l-1.35 0.05c0.306-0.023 0.639-0.14 1-0.35 0.867-0.467 1.533-1.25 2-2.35 0.633-1.4 0.75-3.066 0.35-5l1.75-0.65z" clip-rule="evenodd" fill="#F0E3D5" fill-rule="evenodd"/>
<path d="m25.65 15.85l4.25 1.6-1.45-0.25c-0.633-0.067-1.217-0.034-1.75 0.1l-0.6 0.2-1.75-0.6 0.55-0.2c0.333-0.133 0.583-0.417 0.75-0.85z" clip-rule="evenodd" fill="#fff" fill-rule="evenodd"/>
<path d="m32.05 21.05c0.1-1.066 0.817-1.633 2.15-1.7 0.6 0 1.083 0.167 1.45 0.5-0.233 2.367-0.883 4.066-1.95 5.1-0.904 0.876-2.088 1.393-3.55 1.55 0.137-0.07 0.27-0.17 0.4-0.3 0.833-0.767 1.333-2.483 1.5-5.15z" clip-rule="evenodd" fill="#CCBEAF" fill-rule="evenodd"/>
<path d="m33.25 18.8l-0.05 2.65c-0.167 1.2-0.617 2.45-1.35 3.75-0.667 1.2-1.567 1.916-2.7 2.149l-1.4 0.051c0.311-0.022 0.678-0.14 1.1-0.351 0.867-0.467 1.566-1.267 2.1-2.4 0.667-1.433 0.816-3.167 0.45-5.2l1.85-0.649z" clip-rule="evenodd" fill="#F0E3D5" fill-rule="evenodd"/>
<path d="m32.75 18.35l4.4 1.75-1.5-0.25c-0.633-0.1-1.233-0.083-1.8 0.05l-0.65 0.2-1.8-0.65 0.55-0.2c0.367-0.133 0.633-0.433 0.8-0.9z" clip-rule="evenodd" fill="#fff" fill-rule="evenodd"/>
<path d="m42.25 28.1c-1.1 1.067-2.567 1.617-4.4 1.65l1.25-0.35c0.833-0.801 1.333-2.551 1.5-5.25 0.033-1.1 0.75-1.683 2.15-1.75 0.6 0 1.083 0.167 1.45 0.5-0.233 2.433-0.883 4.166-1.95 5.2z" clip-rule="evenodd" fill="#CCBEAF" fill-rule="evenodd"/>
<path d="m41.8 21.85l-0.05 2.75c-0.167 1.167-0.633 2.433-1.4 3.8-0.667 1.199-1.567 1.933-2.7 2.199l-1.55 0.051 1.2-0.351c0.9-0.5 1.617-1.316 2.15-2.45 0.667-1.5 0.816-3.266 0.45-5.3l1.9-0.699z" clip-rule="evenodd" fill="#F0E3D5" fill-rule="evenodd"/>
<path d="m41.3 21.4l4.45 1.75-1.55-0.25c-0.633-0.1-1.233-0.083-1.8 0.05l-0.65 0.25-1.85-0.65 0.55-0.25c0.367-0.133 0.65-0.433 0.85-0.9z" clip-rule="evenodd" fill="#fff" fill-rule="evenodd"/>
<path d="m48.55 27.25c0.134-1.1 0.917-1.65 2.351-1.65 0.633 0 1.149 0.167 1.55 0.5-0.334 2.4-1.084 4.101-2.25 5.101-0.733 0.633-1.733 1.083-3 1.35l-1.7 0.2 1.3-0.35c0.932-0.734 1.515-2.451 1.749-5.151z" clip-rule="evenodd" fill="#CCBEAF" fill-rule="evenodd"/>
<path d="m49.9 25l-0.15 2.7c-0.2 1.2-0.717 2.45-1.55 3.75-0.733 1.166-1.717 1.866-2.95 2.1h-1.6l1.3-0.35c0.967-0.434 1.75-1.217 2.35-2.351 0.733-1.433 0.917-3.183 0.55-5.25l2.05-0.599z" clip-rule="evenodd" fill="#F0E3D5" fill-rule="evenodd"/>
<path d="m49.4 24.55l4.7 1.85-1.65-0.3c-0.7-0.133-1.351-0.133-1.95 0l-0.7 0.2-1.95-0.7 0.601-0.2c0.433-0.133 0.749-0.417 0.949-0.85z" clip-rule="evenodd" fill="#fff" fill-rule="evenodd"/>
<path d="m59.5 28.55c0.667 0 1.2 0.184 1.6 0.55l-0.5 2.1c-0.466 1.533-1.083 2.649-1.85 3.35-0.8 0.667-1.866 1.134-3.2 1.4l-1.8 0.2 1.4-0.351c0.966-0.8 1.583-2.633 1.85-5.5 0.033-0.6 0.333-1.066 0.9-1.399 0.466-0.233 1-0.35 1.6-0.35z" clip-rule="evenodd" fill="#CCBEAF" fill-rule="evenodd"/>
<path d="m58.4 27.9l-0.15 2.9c-0.2 1.267-0.75 2.601-1.65 4-0.8 1.267-1.85 2.017-3.149 2.25h-1.7l1.35-0.35c1.034-0.5 1.867-1.351 2.5-2.55 0.801-1.534 1.017-3.384 0.65-5.551l2.149-0.699z" clip-rule="evenodd" fill="#F0E3D5" fill-rule="evenodd"/>
<path d="m57.85 27.4l5 2-1.75-0.3c-0.733-0.133-1.416-0.133-2.05 0l-0.75 0.2-2.05-0.7 0.65-0.25c0.433-0.133 0.75-0.45 0.95-0.95z" clip-rule="evenodd" fill="#fff" fill-rule="evenodd"/>
<path d="m17.4 20.05c0.033-0.7 0.017-1.316-0.05-1.85l-0.15-0.6c0-0.067 0.05-0.133 0.15-0.2 0.233-0.133 0.633-0.25 1.2-0.35 0.534-0.066 0.934 0.067 1.2 0.4l-0.05 2.05c0.066 1.467 0.383 2.55 0.95 3.25 0.9 1.067 1.35 1.767 1.35 2.1 0 0.833-1.183 1.383-3.55 1.65s-3.75 0.267-4.15 0c-0.3-0.2-0.133-0.617 0.5-1.25 0.367-0.033 0.75-0.267 1.15-0.7 0.833-0.9 1.317-2.4 1.45-4.5z" clip-rule="evenodd" fill="#F7F0E8" fill-rule="evenodd"/>
<path d="m20.65 22.75c1.533 1.833 2.333 2.85 2.4 3.05 0.5 1.533-0.833 2.483-4 2.851-0.367-1.467-0.583-3.7-0.65-6.7l-0.05-4.05h0.25c0.167 0 0.55-0.15 1.15-0.45 0 0.066-0.017 0.767-0.05 2.1 0.1 1.466 0.417 2.532 0.95 3.199z" clip-rule="evenodd" fill="#CCBEAF" fill-rule="evenodd"/>
<path d="m23.5 19.65l-0.15-0.65 0.2-0.2c0.233-0.167 0.667-0.3 1.3-0.4 0.633-0.066 1.117 0.067 1.45 0.4l-0.3 2.45c-0.067 1.8 0.217 3.083 0.85 3.85 0.867 1.067 1.267 1.9 1.2 2.5-0.1 1.034-1.283 1.851-3.55 2.45-2.533 0.667-4.05 0.617-4.55-0.149-0.4-0.601-0.167-1.334 0.7-2.2 0.434-0.033 0.867-0.3 1.3-0.8 0.9-1.034 1.433-2.734 1.6-5.101 0.067-0.8 0.05-1.517-0.05-2.15z" clip-rule="evenodd" fill="#F7F0E8" fill-rule="evenodd"/>
<path d="m24.65 19.7c0.233 0 0.833-0.267 1.8-0.8 0 0.067-0.017 0.967-0.05 2.7 0.067 1.833 0.417 3.117 1.05 3.85 0.4 0.466 1.316 1.5 2.75 3.1 0.6 1.467-0.917 2.417-4.55 2.851-0.4-1.7-0.667-4.134-0.8-7.3l-0.05-4.2c-0.066-0.033-0.133-0.066-0.2-0.1-0.1-0.068-0.083-0.101 0.05-0.101z" clip-rule="evenodd" fill="#CCBEAF" fill-rule="evenodd"/>
<path d="m30.75 22.45l-0.15-0.7 0.2-0.25c0.267-0.167 0.733-0.3 1.4-0.4 0.633-0.1 1.133 0.05 1.5 0.45l-0.65 2.45c-0.3 1.767-0.117 3.05 0.55 3.85 0.433 0.5 1.3 1.483 2.6 2.95 0.4 1.334-1.434 2.217-5.5 2.65-2.767 0.3-4.4 0.133-4.9-0.5-0.4-0.467-0.183-1.134 0.65-2 0.667-0.033 1.35-0.334 2.05-0.9 1.367-1.1 2.15-2.899 2.35-5.4 0.033-0.867 0-1.6-0.1-2.2z" clip-rule="evenodd" fill="#F7F0E8" fill-rule="evenodd"/>
<path d="m34.75 27.85c1.9 1.434 3.033 2.867 3.4 4.301 0.533 2.1-1.15 3.383-5.05 3.85-0.4-1.8-0.7-4.667-0.9-8.6l-0.2-5.351h0.3c0.233 0 0.684-0.167 1.35-0.5 0 0.067-0.066 0.95-0.2 2.65 0.067 1.8 0.5 3.017 1.3 3.65z" clip-rule="evenodd" fill="#CCBEAF" fill-rule="evenodd"/>
<path d="m43.95 34.7c0.7 0.967-1.117 1.7-5.45 2.2-3.2 0.366-5.15 0.449-5.85 0.25-0.566-0.167-0.483-0.634 0.25-1.4 0.633-0.134 1.283-0.55 1.95-1.25 1.3-1.366 2.05-3.45 2.25-6.25 0.066-0.934 0.05-1.75-0.05-2.45l-0.15-0.8 0.2-0.25c0.3-0.2 0.8-0.35 1.5-0.45s1.233 0.067 1.6 0.5l-0.5 2.851c-0.167 2.066 0.117 3.55 0.85 4.449 0.467 0.567 1.6 1.433 3.4 2.6z" clip-rule="evenodd" fill="#F7F0E8" fill-rule="evenodd"/>
<path d="m41.35 31.85c2.667 1.733 4.1 3.317 4.3 4.75 0.233 1.867-1.851 3.067-6.25 3.601-0.433-1.967-0.733-5.033-0.9-9.2l-0.1-5.6h0.3c0.267 0 0.767-0.2 1.5-0.6 0 0.067-0.083 1.083-0.25 3.05 0 2.066 0.467 3.399 1.4 3.999z" clip-rule="evenodd" fill="#CCBEAF" fill-rule="evenodd"/>
<path d="m50.05 35.65c0.467 0.533 1.467 1.383 3 2.55 0.467 1.033-1.483 1.783-5.85 2.25-3.067 0.333-4.867 0.333-5.4 0-0.367-0.233-0.133-0.767 0.7-1.601 0.467-0.033 0.967-0.333 1.5-0.899 1-1.167 1.6-3.084 1.8-5.75 0.101-0.9 0.101-1.684 0-2.351l-0.2-0.75 0.2-0.25c0.3-0.199 0.8-0.35 1.5-0.449 0.7-0.067 1.233 0.1 1.601 0.5l-0.051 2.6c0.1 1.9 0.5 3.283 1.2 4.15z" clip-rule="evenodd" fill="#F7F0E8" fill-rule="evenodd"/>
<path d="m50.05 35.65c0.467 0.533 1.45 1.383 2.95 2.55 0.533 1-1.25 1.733-5.35 2.2-0.433-1.9-0.65-4.3-0.65-7.2l0.1-3.75h0.351c0.166 0 0.649-0.184 1.45-0.55 0 0.066-0.017 0.966-0.051 2.699 0.1 1.835 0.5 3.184 1.2 4.051z" clip-rule="evenodd" fill="#CCBEAF" fill-rule="evenodd"/>
<path d="m55.725 38.425c0.988-0.391 1.23-0.949 0.726-1.675l-1.101-1 0.9-0.4c0.667-0.267 1.267-0.366 1.8-0.3 0.3 0.066 0.934 0.233 1.9 0.5 1.066 0.233 2.1 0.351 3.1 0.351 0.467 0-0.866 0.433-4 1.3l-3.325 1.224z" clip-rule="evenodd" fill="#fff" fill-rule="evenodd"/>
<path d="m16.35 16.8l-0.3 0.1c-0.2 0.1-0.683 0.233-1.45 0.4l-0.55-0.2c-0.333-0.133-0.833-0.2-1.5-0.2-0.661 0-1.261 0.083-1.8 0.25 4.221-1.392 6.087-1.942 5.6-1.65-0.3 0.167-0.4 0.433-0.3 0.8 0.067 0.2 0.167 0.367 0.3 0.5z" clip-rule="evenodd" fill="#fff" fill-rule="evenodd"/>
<path d="m6.95 21.85l2.4-0.35 0.9-0.25 1.2 0.45 0.55 0.3-0.05 1.2c0.033 0.867 0.233 1.417 0.6 1.65l0.85 0.65c-2.767-1.267-4.433-2.067-5-2.4-0.367-0.2-0.717-0.467-1.05-0.8l-0.4-0.45z" clip-rule="evenodd" fill="#fff" fill-rule="evenodd"/>
<path d="m10.95 24c-0.7-0.3-1.1-0.5-1.2-0.6-0.267-0.2-0.25-0.383 0.05-0.55l2.2-0.85 0.15 1.3c0.167 0.934 0.45 1.517 0.85 1.75l-2.05-1.05z" clip-rule="evenodd" fill="#CCBEAF" fill-rule="evenodd"/>
<path d="m17.4 24.7c0.4 0.133 0.717 0.267 0.95 0.4l0.6 0.35v1.399c0.066 1.034 0.3 1.7 0.7 2l1 0.75c-3.233-1.5-5.2-2.449-5.9-2.85-0.4-0.233-0.8-0.55-1.2-0.95l-0.5-0.5 2.85-0.4 1-0.3 0.5 0.101z" clip-rule="evenodd" fill="#fff" fill-rule="evenodd"/>
<path d="m17.7 27.85c-0.8-0.366-1.267-0.6-1.4-0.699-0.3-0.233-0.267-0.467 0.1-0.7 0.533-0.3 1.383-0.633 2.55-1l0.2 1.55c0.233 1.066 0.583 1.75 1.05 2.05 0.767 0.432-0.067 0.032-2.5-1.201z" clip-rule="evenodd" fill="#CCBEAF" fill-rule="evenodd"/>
<path d="m27.4 28.95v1.5c0.1 1.033 0.383 1.7 0.85 2l1.1 0.75c-3.467-1.434-5.567-2.334-6.3-2.7-0.466-0.233-0.917-0.55-1.35-0.95l-0.55-0.5 1.1-0.149c0.833-0.134 1.467-0.267 1.9-0.4l1.05-0.35 1.55 0.449 0.65 0.35z" clip-rule="evenodd" fill="#fff" fill-rule="evenodd"/>
<path d="m26.2 31.5c-0.833-0.333-1.333-0.566-1.5-0.7-0.333-0.233-0.317-0.467 0.05-0.7 0.567-0.333 1.45-0.716 2.65-1.149l0.25 1.6c0.267 1.134 0.65 1.834 1.15 2.101 0.833 0.431-0.033 0.048-2.6-1.152z" clip-rule="evenodd" fill="#CCBEAF" fill-rule="evenodd"/>
<path d="m36.5 36.65c-3.733-1.4-6-2.301-6.8-2.7-0.467-0.233-0.95-0.55-1.45-0.95l-0.6-0.5 1.15-0.2c0.867-0.166 1.534-0.333 2-0.5l1.15-0.399 1.65 0.449 0.7 0.351 0.05 1.6c0.133 1.101 0.45 1.8 0.95 2.101l1.2 0.748z" clip-rule="evenodd" fill="#fff" fill-rule="evenodd"/>
<path d="m33.1 34.95c-0.9-0.334-1.434-0.566-1.6-0.7-0.367-0.233-0.367-0.467 0-0.7 0.6-0.399 1.533-0.85 2.8-1.35l0.3 1.7c0.333 1.199 0.783 1.933 1.35 2.199 0.867 0.467-0.083 0.085-2.85-1.149z" clip-rule="evenodd" fill="#CCBEAF" fill-rule="evenodd"/>
<path d="m45.2 40.8c-4-1.533-6.417-2.5-7.25-2.899-0.534-0.267-1.067-0.617-1.6-1.051l-0.6-0.55 1.25-0.2c0.933-0.166 1.65-0.35 2.15-0.55l1.15-0.399 0.6 0.1c0.5 0.1 0.9 0.217 1.2 0.35l0.75 0.4 0.05 1.7c0.167 1.2 0.517 1.967 1.05 2.3l1.25 0.799z" clip-rule="evenodd" fill="#fff" fill-rule="evenodd"/>
<path d="m41.55 38.95c-0.933-0.367-1.5-0.617-1.7-0.75-0.4-0.267-0.383-0.533 0.05-0.8 0.6-0.4 1.583-0.867 2.95-1.4l0.35 1.8c0.367 1.267 0.833 2.05 1.4 2.351 0.966 0.499-0.05 0.099-3.05-1.201z" clip-rule="evenodd" fill="#CCBEAF" fill-rule="evenodd"/>
<path d="m42.35 38.8c3.1 0.834 5.833 1.033 8.2 0.601 2.267-0.4 5.45-1.4 9.55-3 3.067-1.2 5.5-2.25 7.301-3.15 0.966-0.5 0.25-1.366-2.15-2.6-1.833-0.9-4.116-1.817-6.85-2.75-1.534-0.5-8.084-2.884-19.65-7.15-10.533-3.9-16.15-5.9-16.85-6-0.8-0.1-3.2 0.367-7.2 1.4-2.067 0.533-4.417 1.167-7.05 1.9-1.7 0.434-2.783 0.733-3.25 0.9-1.2 0.433-1.533 0.833-1 1.2l34.949 17.249 4 1.4zm8.15 2.25c-2.467 0.4-4.983 0.233-7.55-0.5l-3.15-1.2-39.55-19.2c-0.933-0.633 0.667-1.417 4.8-2.35 3.1-0.833 5.867-1.583 8.3-2.25 4.767-1.233 7.583-1.783 8.45-1.65 1.2 0.2 8.4 2.7 21.6 7.5 13.466 4.867 21.517 7.95 24.15 9.25 2.4 1.199 3.184 2.149 2.351 2.85-1.667 0.7-2.917 1.25-3.75 1.65-6.734 3.367-11.951 5.333-15.651 5.9z" clip-rule="evenodd" fill="#fff" fill-rule="evenodd"/>
</svg>