<?xml version="1.0" encoding="UTF-8"?>
<svg viewBox="0 0 150.19098 160.04512" xmlns="http://www.w3.org/2000/svg" xmlns:xlink="http://www.w3.org/1999/xlink">
 <defs>
  <linearGradient id="k" x2="0" y1="31.854" y2="74.712" gradientUnits="userSpaceOnUse">
   <stop stop-color="#1f2259" offset="0"/>
   <stop stop-color="#2fb5ea" offset="1"/>
  </linearGradient>
  <linearGradient id="a">
   <stop stop-color="#9eed40" offset="0"/>
   <stop stop-color="#52af34" offset="1"/>
  </linearGradient>
  <linearGradient id="b">
   <stop stop-color="#fff" offset="0"/>
   <stop stop-color="#fff" stop-opacity="0" offset="1"/>
  </linearGradient>
  <linearGradient id="i" x1="-16.717" x2="14.184" y1="-55.519" y2="-75.892" gradientTransform="matrix(-.33495,.98949,-.90672,-.30693,0,0)" gradientUnits="userSpaceOnUse" xlink:href="#a"/>
  <linearGradient id="j" x1="-178.06" x2="-155.12" y1="28.476" y2="11.497" gradientTransform="matrix(-.68945,-.78482,.71917,-.63178,0,0)" gradientUnits="userSpaceOnUse" xlink:href="#a"/>
  <linearGradient id="l" x1="182" x2="183.28" y1="36.387" y2="53.875" gradientUnits="userSpaceOnUse" xlink:href="#b"/>
  <linearGradient id="h" x1="21.739" x2="42.925" y1="159.77" y2="141.79" gradientTransform="scale(1.2013 .83241)" gradientUnits="userSpaceOnUse" xlink:href="#a"/>
  <linearGradient id="g" x1="59.63" x2="84.935" y1="13.401" y2="80.245" gradientTransform="scale(1.153 .86728)" gradientUnits="userSpaceOnUse" xlink:href="#a"/>
  <linearGradient id="f" x1="32.349" x2="7.6905" y1="71.676" y2="137.73" gradientTransform="scale(1.153 .86728)" gradientUnits="userSpaceOnUse" xlink:href="#a"/>
  <linearGradient id="e" x1="69.567" x2="123.33" y1="163.47" y2="118.52" gradientTransform="scale(1.153 .86728)" gradientUnits="userSpaceOnUse" xlink:href="#a"/>
  <radialGradient id="c" cx="180.72" cy="38.594" r="28.884" gradientTransform="matrix(.16244 2.1067 -1.6909 .26266 228.26 -371.43)" gradientUnits="userSpaceOnUse">
   <stop stop-color="#fff" stop-opacity=".87451" offset="0"/>
   <stop stop-color="#fff" stop-opacity="0" offset="1"/>
  </radialGradient>
  <radialGradient id="d" cx="194.08" cy="26.293" r="28.884" gradientTransform="matrix(-1.0179 1.5759e-16 6.233e-7 -1.1824 391.62 74.389)" gradientUnits="userSpaceOnUse" xlink:href="#b"/>
 </defs>
 <path d="m89.069 16.946c-7.1602 0.51734-9.4486-4.669-17.203 5.2058-7.6855 9.787-11.104 19.77-11.104 19.77l-27.88 4.165s2.2587-12.103 6.689-17.588c5.1052-8.5656 14.339-16.837 25.642-20.363s30.888 8.3022 23.855 8.8104z" fill="url(#i)" fill-rule="evenodd" stroke="#3d7311" stroke-width="2"/>
 <path transform="matrix(.45017 0 0 -.16498 6.2604 149.1)" d="m222.45 56.486a28.884 28.884 0 1 1 -57.769 0 28.884 28.884 0 1 1 57.769 0z" fill="#fff"/>
 <path d="m16.171 102.83c4.0281 5.9422 0.68086 10.517 13.11 12.295 12.318 1.7623 22.673-0.26869 22.673-0.26869l17.547 22.062s-11.611 4.0953-18.576 3.0012c-9.9706-0.13849-21.75-3.9994-30.456-12.025s-8.254-30.901-4.2975-25.064z" fill="url(#h)" fill-rule="evenodd" stroke="#3d7311" stroke-width="2"/>
 <path d="m126.24 122.54c3.132-6.4596 8.7678-5.8483 4.093-17.501-4.633-11.549-11.569-19.501-11.569-19.501l10.333-26.227s9.3519 8.0074 11.887 14.587c4.8654 8.704 7.4116 20.836 4.8137 32.389s-22.634 22.598-19.558 16.254z" fill="url(#j)" fill-rule="evenodd" stroke="#3d7311" stroke-width="2"/>
 <path transform="matrix(2.0836 0 0 2.0835 -326.24 -35.914)" d="m222.45 56.486a28.884 28.884 0 1 1 -57.769 0 28.884 28.884 0 1 1 57.769 0z" fill="url(#k)"/>
 <path d="m71.72088,140.30013c-3.68631-.41637-8.02813-1.27001-8.2451-1.62107-.13162-.21297.46833-.52455 1.33324-.69239 2.06872-.40145 2.10431-.40155 5.26795-.01465 1.79898.22 2.83676.15174 3.05471-.20091 .23263-.37639.89849-.30668 2.255.23609 1.72603.69062 3.07532.72287 5.31391.12701 .42552-.11327.66941.08308.58688.47248-.09925.46835.11705.55728.72809.29933 .4781-.20185 1.52455-.3316 2.32545-.28836l1.45616.07861-1.16978-.82388-1.16978-.82389 1.111-.41098c.7088-.26221 1.35595-.20769 1.78764.15057 .86845.72076 6.84027.20656 9.23846-.79547 .95021-.39702 2.41087-.7296 3.2459-.73906s2.0643-.32936 2.73171-.71088c1.34903-.77117 2.42696-.92694 2.42696-.35071 0,.43745-4.75883,2.55715-8.97971,3.99978-5.73202,1.95912-16.21851,2.90807-23.29871,2.10838zm12.96515-7.78946c-1.74374-.71642-2.71815-2.44876-1.92855-3.42862 .34488-.42798.29266-.60893-.17725-.61417s-.49994-.11345-.10702-.36405c.30753-.19613.70723-1.44874.88822-2.78355s.61435-3.40987.96303-4.61121 .6306-2.62111.62649-3.15503c-.00792-1.02838.41729-4.26651.91334-6.95555 .39747-2.15468-.56008-3.82605-2.86597-5.00242-1.02281-.5218-1.97848-1.3211-2.12372-1.77623-.72153-2.26095-2.39977-5.64554-3.73717-7.53693-1.30558-1.84639-.4143-5.79192 1.74357-7.71847 1.30218-1.16259 1.5247-1.67091 1.39445-3.1855-.08524-.9912-.33124-1.91139-.54667-2.04488s-.41254-.46112-.43803-.72808-.31938-.48539-.65308-.48539-.55409.26719-.48973.59373c.15179.77017-2.75816.23218-3.66859-.67824-.35397-.35397-.8464-.64358-1.0943-.64358s-.45071-.28957-.45071-.64348c0-1.04006-2.04957-2.62189-3.88312-2.99694-.93438-.19113-2.17762-.78691-2.76277-1.32398-.71321-.65459-1.87521-1.02024-3.52522-1.10927-2.52895-.13646-5.12983-1.37454-4.62011-2.19929 .15807-.25577-.36679-.46406-1.16936-.46406-1.81855,0-2.37936-.81366-1.19803-1.73819 .49393-.38656.66017-.64505.36945-.57444-.44063.10701-2.3063-1.78789-3.69682-3.75475-.18873-.26696-1.00688-1.24988-1.8181-2.18426l-1.47494-1.69886 .76108,1.57751c.4186.86764.95666,1.57752 1.1957,1.57752s.31735.30554.17404.67899-.02723.82318.25793.99943 .51848.66903.51848,1.0951c0,.67467-.12531.66127-.97078-.10387-.53393-.4832-.97078-1.17918-.97078-1.54663s-.33414-.79631-.74255-.95303c-.45343-.17401-.63473-.62463-.46564-1.1574 .1523-.47984.04958-1.01293-.22824-1.18463s-.50513-.70426-.50513-1.18344-.5262-1.43905-1.16934-2.133c-1.78398-1.92495-2.27473-5.03374-1.2093-7.66062 .97823-2.41185 1.16747-4.32491.42784-4.32491-.27922,0-.36778-.50542-.20337-1.16053 .1602-.63829.05515-1.30645-.23344-1.48481s-.52472.01373-.52472.43244-.22669.75673-.50376.75673-.46153-.49145-.40991-1.09213c.17813-2.07259-.06004-2.79099-.92527-2.79099-1.10222,0-4.5262,1.73067-5.02695,2.5409-.20875.33777-.55134.61678-.7613.62002s-1.39148.70449-2.62561,1.55836-2.37211,1.42422-2.52887,1.26747 .41462-.75648 1.26973-1.33273 1.62941-1.4769 1.72068-2.00144 .96649-1.6631 1.94492-2.53013 1.36692-1.43289.86331-1.25747c-1.39433.48566-.73483-.91947.7779-1.6574 .6857-.3345 1.37732-1.09899 1.53695-1.69886 .38372-1.44205 3.73673-3.75591 5.47383-3.77739 .75824-.00938 2.68916-.29552 4.29095-.63586s3.71685-.56444 4.70016-.49798c1.4693.09932 1.77596-.03655 1.72126-.76262-.05396-.71638-.22725-.78311-.9163-.35278-.46736.29188-1.00003.38041-1.18369.19674-.46399-.46398.73757-1.81357 1.61463-1.81357 .4226,0 .61135-.28465.45644-.68833-.17401-.45347.34653-.95718 1.52558-1.47624 .98435-.43335 1.35287-.6884.81895-.56678-1.28116.29183-4.15331,1.298-5.21136,1.82564-.46356.23118-1.28266.42032-1.82021.42032s-.97737.19254-.97737.42785c0,.4218-3.45978,1.81023-5.82468,2.33749-1.05091.23429-.98587.11409.48539-.89718 5.25593-3.61266 9.92811-5.60179 17.12969-7.2928 3.69224-.86697 5.99063-1.05228 13.20718-1.06486 8.70703-.01517 15.23938.76678 13.80604,1.65263-.35978.22236-.83705.29126-1.06059.15311s-2.6747-.31692-5.44706-.39728c-4.23078-.12262-4.99747-.03364-4.77206.5538 .14772.38495.54236.59485.87697.46645 .83343-.31982 4.75348,1.7257 7.28934,3.80364 1.14998.94232 2.27459,1.71331 2.49915,1.71331s.69183.45401 1.03838,1.00892c.55172.88345.51187,1.03983-.32047,1.25749-1.24981.32683-1.59084,2.29942-.78998,4.56932 .35191.99743.53417,1.91919.40501,2.04835-.44379.44378-3.3121-1.30135-5.18247-3.15312-1.02987-1.01962-2.10599-1.70954-2.39138-1.53316s-.37904.09439-.20656-.18469-.02282-.78356-.43247-1.12355-.63254-.91079-.49528-1.26846c.14021-.36538-.06946-.65032-.47853-.65032-.40045,0-.85381-.32764-1.00748-.72808s-.51185-.72809-.79598-.72809-.87104-.32078-1.30426-.71284c-.58049-.52533-1.16509-.60015-2.22247-.28442-.78914.23564-1.14463.44721-.79.47015 1.04643.06771 4.52154,3.87119 4.37135,4.78441-.07591.46162.00593,1.06816.18188,1.34786s.12217.82578-.11951,1.21348c-.37347.59912-.7511.5408-2.51627-.38857-1.14227-.6014-2.44621-1.09286-2.89764-1.09212-1.0997.0018-1.60925-.90559-.70368-1.25309 .39673-.15224.84605-.60183.99849-.99909 .208-.54206.03568-.64566-.69056-.41515-.71274.22621-.96773.08537-.96773-.53456 0-.46293-.14373-.69797-.31938-.52231s-.55791.1215-.84943-.12035c-.36604-.30367-.52822.0847-.52411,1.25515 .00389,1.10821.30144,1.86026.85964,2.17264 .46953.26277.75143.64323.62643.84548s.36187.28217 1.08192.17758c.8829-.12823 2.02041.29018 3.49344,1.28501 1.68386,1.13722 2.22021,1.3121 2.34119.76337 .23926-1.08512.69341-.8819 2.76101,1.23552 1.04582,1.07101 2.11401,1.87646 2.37377,1.78988 .54765-.18255 1.81444.99926 2.98328,2.78313 .81779,1.24809 2.00448,1.7806 1.42446.63919-.16957-.3337.14517-.09108.69943.53916s1.00441,1.50396 1.00033,1.94156c-.00646.69105-.0693.69993-.47796.06758-.41825-.64718-.47561-.64718-.51628,0-.03141.49969-.12256.53775-.29058.12135-.39138-.96995-2.49508-.75879-2.4156.24246 .04269.53771-.33317.90617-1.02471,1.00454-.60067.08544-1.09213.38733-1.09213.67088 0,.32128-.73162.41741-1.94156.25512-1.58535-.21264-1.94354-.11304-1.95235.54283-.00594.44178-.43793,1.3493-.95999,2.01672s-.95405,1.51325-.95999,1.87964c-.00914.56463-.13899.56463-.85184,0-.78026-.61802-.7788-.56869.02017.68236 .94866,1.48544.78517,1.97617-1.22072,3.66403-1.36936,1.15223-1.81594,3.14029-.84081,3.74295 .71305.44069 1.49582,2.63125 1.1438,3.20083-.42087.68099-1.69731-.52397-2.44185-2.30511-.46004-1.10055-1.05124-1.59651-2.16973-1.82021-2.3849-.47699-3.35761-.3683-3.35761.37516 0,.43905-.33952.59386-.95142.43385-1.09906-.28742-4.05174,1.39455-5.11631,2.91445-.93503,1.33493-.92282,2.93475.03786,4.95922 .89382,1.88359 1.61778,2.25533 3.61454,1.85598 .99933-.19987 1.54796-.65324 1.74617-1.44298 .15896-.63335.53837-1.16826.84313-1.18868s.9355-.11019 1.40162-.19947c1.26619-.24252 1.46919.51408.59271,2.20901-.43104.83355-.66029,1.63895-.50943,1.78981s.0236.57631-.28276.94547c-.46129.55581-.24205.63647 1.27545.46925 3.0056-.33121 3.59971.01455 3.57122,2.07839-.04808,3.48365 1.08355,4.9341 3.0348,3.88983 .64333-.34431 1.22891-.34376 1.87449.00173 1.24882.66836 1.30671.65656 2.36767-.48226 .50459-.5416 1.33219-1.06885 1.83913-1.17168s1.33977-.35209 1.85075-.55393c.65149-.25734.82421-.19731.5781.2009-.19304.31234-.11965.56788.16307.56788s.51403-.20547.51403-.45661 .58501-.1531 1.30002.21786 1.51324.54267 1.77386.38161 .33333-.06551.16161.21235 .17677.63627.77443.79645c1.52743.40939 1.91472.37356 1.59279-.14735-.1536-.24851-.02353-.6099.28904-.80308 .35493-.21936.43827-.14083.22197.20916-.32199.52099.35394.75254 2.01656.69079 .3337-.01241.61067.33544.61548.77296 .01225,1.11366 3.32039,3.72712 5.18345,4.09497 1.87786.37077 3.54481,1.70964 3.54481,2.84713 0,.45884.23266.97805.51701,1.15379 .3383.20908.2169.68039-.35116,1.36347-.4775.57416-.55981.77346-.18293.44289 .55601-.48769 1.26624-.28169 3.76561,1.09213 1.69419.93124 3.47583,1.69317 3.95919,1.69317s1.26086.42212 1.72776.93805 1.15604.82019 1.5314.67615c.49366-.18945.68248.1443.68248,1.20658 0,1.03523-.63715,2.2149-2.15963,3.99854-1.18779,1.39154-2.30753,3.21138-2.4883,4.04409-.49847,2.29623-2.67638,5.06833-4.45312,5.66804-.86765.29287-1.57753.83814-1.57753,1.21173s-.60067,1.06543-1.33481,1.53742-1.72875,1.34541-2.21018,1.94093c-2.38375,2.9485-4.98074,5.01653-6.0612,4.82663-.83839-.14736-1.07718.00937-.97081.63724 .15122.89263-.8944,2.43799-1.64958,2.43799-.25209,0-1.64515,1.0246-3.09568,2.27691-1.75192,1.51248-2.44231,2.39743-2.05643,2.63591 .40779.25203.22702.65825-.60666,1.3632-1.11336.94144-1.13448,1.04545-.33811,1.66476 .46719.36331.84943.77482.84943.91448 0,.61559-1.83379.63451-3.29541.034zm-1.95287-83.48548c-.35039-.14021-.76903-.12297-.93033.03832s.12539.27601.63708.25494c.56546-.02329.68047-.13831.29325-.29326zm3.28952-2.20148c.00946-.19185-.31044-.22309-.71088-.06943-.42546.16327-.73117.00563-.73552-.37927-.00605-.53668-.08756-.53209-.44005.02472-.26239.41446-.22403,1.14122.09746,1.84681l.53009,1.16343 .62085-1.11873c.34147-.6153.62859-1.27569.63805-1.46753zm-15.51527,1.36491c0-.097-.49927-.5035-1.10949-.90333-.99524-.65211-1.21267-.64341-2.11157.08447-.9746.78919-.94418.81395 1.10949.90333 1.16137.05055 2.11157.01253 2.11157-.08447zm-1.1674-2.4986c-.88078-.64405-.88291-.6905-.04627-1.01154 .48229-.18507 1.69654-.11772 2.69835.14968 1.54522.41244 1.77908.37575 1.54208-.24188-.18085-.47126-.08046-.6051.28465-.37946 .31022.19173.948.12499 1.41731-.14831 .77498-.45131.75863-.49825-.17817-.51166-.79065-.01132-1.03146-.31755-1.03146-1.31173 0-.71333-.40954-1.59644-.9101-1.96246s-.8555-.76529-.78876-.88729c.33599-.61411.04169-1.19258-.60673-1.19258-.40045,0-.72808-.23663-.72808-.52584s-.27303-.42794-.60674-.30829-.99424.01815-1.46786-.22558c-.66861-.34407-1.1397-.11208-2.10715,1.03767-.68531.81444-1.42165,1.37226-1.63632,1.2396s-.51452.08255-.66637.47827-.12013.67103.07048.61182 .95696.50912 1.70298,1.26295c.84869.85757 1.64646,1.25929 2.13129,1.07324 1.00108-.38414 2.6774.14465 2.31538.73039-.15311.24774-.60602.45044-1.00647.45044-.42675,0-.58474-.23192-.38175-.56038 .2163-.34999.13296-.42851-.22196-.20916-.31257.19318-.44264.55457-.28905.80308s.04794.45186-.23478.45186-.51403-.21842-.51403-.48539c0-.85401-1.81959-.51886-2.05422.37838-.26676,1.02007.86373,2.31135 1.34368,1.53478 .21539-.3485.49934-.3483.91975.00061 .3345.27761.7519.36103.92757.18537s.31938-.02815.31938.3278 .16348.48371.36328.28391-.05215-.66705-.5599-1.03832zm3.59435-2.61467c0-.25121.21592-.59019.47983-.75329 .27514-.17006.35651.02478.19076.45674-.32268.8409-.67059.99475-.67059.29655zm-6.09595-1.22668c-.51822-.39196-.68704-.71959-.37517-.72808 .92214-.0251 2.1026.54041 2.1026,1.00727 0,.63614-.65784.52981-1.72743-.27919zm16.28913,4.73419c0-.05734-.41391-.32579-.91981-.59653-.65579-.35097-1.06192-.32104-1.4149.10427-.37229.44858-.14416.59654.91981.59654 .77819,0 1.4149-.04693 1.4149-.10428zm-7.28084-1.1092c0-.26696-.34054-.48539-.75674-.48539s-.62173.21843-.45674.48539 .50552.48539.75673.48539 .45675-.21842.45675-.48539zm1.69886,0c-.16499-.26696-.39631-.48539-.51404-.48539s-.21404.21843-.21404.48539 .23131.48539.51403.48539 .37904-.21842.21405-.48539zm-15.77517-2.44312c-.61579-.41163-.52222-.6689.60674-1.66815 .73414-.64979 1.33482-1.4521 1.33482-1.7829s-.30978-.17779-.6884.34-.85187.77797-1.05168.57816-.10845-.36328.203-.36328 .56629-.32763.56629-.72808c0-.94205-.91837-.94405-1.27957-.00278-.15308.3989-.47743.60224-.72078.45184s-.31677-.47678-.16318-.7253 .06083-.45185-.20613-.45185-.62258.22199-.79027.4933-.53154.35323-.80855.18202c-.32475-.2007-.26972-.45952.15489-.72856 .53622-.33977.52332-.41547-.06953-.40751-.92157.01236-3.37781,1.3911-2.51965,1.41433 .34946.00946.51297.21526.36337.45732s.21975.33759.82078.21228l1.0928-.22785-1.11873.66847-1.11872.66848 1.34844.61439c.97271.4432 1.39901.46265 1.52997.06978s.37739-.38207.88539.03954c.56727.47078.58166.66166.07415.98361-.41016.26018-.12201.39945.82646.39945 1.13387,0 1.29503-.10772.72808-.4867zm-1.83935-1.73365c-.69357-.75038-.2252-.89397.79904-.24499 .36221.22951.47142.53088.2427.66971s-.6975-.0523-1.04173-.42473zm19.05403-.119c-.2735-.28791-1.19681.44177-1.19681.94582 0,.26174.3056.19424.67912-.14999s.60648-.70236.51769-.79583zm-13.81695.70728c0-.10493-.33899-.32084-.7533-.47983-.43196-.16576-.62679-.08439-.45675.19076 .28505.46122 1.21005.68219 1.21005.28908zm-7.38496-4.92512c.41949-.36531.1793-.49508-.8698-.46992-.79712.01913-1.83241.45737-2.30062.97388-.8339.91992-.82995.92144.19265.07425 1.08574-.8995 1.97131-.40003 1.37566.77588-.16904.33371-.00811.2791.35762-.12135s.92575-.95519 1.24449-1.23275zm3.98723.71872c0-.28272-.21842-.37904-.48539-.21405s-.48539.39631-.48539.51404 .21842.21404.48539.21404 .48539-.23131.48539-.51403zm-2.55753-3.70546c-.47227-.12306-1.12754-.11498-1.45617.01799s.05778.23365.85867.22376 1.06978-.11868.59751-.24174zm3.78385-.54066c-.14944-.14945-.5411-.00031-.87037.33141-.47581.47938-.42005.53514.27172.27172 .4787-.18227.74809-.45369.59864-.60313zm5.56914-.60778c0-.25121-.18202-.45675-.40449-.45675s-.4045.31803-.4045.70673 .18202.59424.4045.45675 .40449-.45552.40449-.70673zm-1.94692-.95216c-.28871-.53945-.36368-1.24933-.16661-1.57752 .2255-.37552.04936-.346-.47519.07963-.78101.63375-.78214.73309-.01795,1.57752 1.06283,1.1744 1.31461,1.14402.65974-.07963zm-2.46203.321c-.11124-.09593-.85753-.32099-1.65842-.50013-1.06344-.23788-1.25981-.19285-.72808.16697 .65546.44356 2.87358.7532 2.3865.33316zm-4.32806-1.32614c.64718-.45769.64718-.49113 0-.30085-.40044.11773-1.16494-.01062-1.69886-.28521-.86781-.44631-.90013-.41361-.30461.30829 .77572.94036 1.01891.97408 2.00347.27777zm2.42695-.66846c0-.451-.2824-.60449-.76879-.41784-.61898.23752-.64262.37498-.12135.70542 .86211.54649.89014.53743.89014-.28758zm12.81428-.25793c1.90695,0-.04483-1.06421-2.1488-1.17163-1.26841-.06476-2.28129-.41734-2.65086-.92276-.86498-1.18292-1.21916-1.0107-1.21916.59278 0,1.15663.16941,1.36642.94054,1.16477 .51729-.13528 1.43671.10157 2.04313.52633 .72819.51004 1.2659.60899 1.58349.2914 .26449-.26449.91775-.48089 1.45167-.48089zm-10.87273,0c0-.26696-.23132-.4854-.51404-.4854s-.37904.21843-.21405.4854 .39631.48539.51404.48539 .21405-.21842.21405-.48539zm13.19653-4.70008c-.35039-.14021-.76904-.12297-.93033.03832s.12539.27601.63707.25493c.56546-.02328.68047-.13831.29326-.29325zm12.8659,106.32155c-.5176-.5176.14441-1.14578 1.20746-1.14578 .83525,0 .90122.12091.39731.72809-.65249.7862-1.11569.90677-1.60478.41769zm-52.03081-11.80715c-1.33482-1.55587-2.51503-2.74522-2.62268-2.64301s-.71378-.51636-1.34698-1.3746c-1.17737-1.59585-2.81309-2.74716-3.94658-2.77785-.34945-.00945-.50579.19248-.34742.44874 .17203.27834-.2989.26135-1.16963-.0422-1.1374-.39649-1.79345-1.21858-2.98642-3.7423-2.45853-5.201-2.48791-5.32905-1.36087-5.93222 .56621-.30303.8791-.82841.72793-1.22232-.1458-.37997-.05353-.69086.20505-.69086s.47016-.34137.47016-.75859c0-.5081.36064-.70846 1.09213-.60675 .75761.10535 1.09402-.09783 1.09831-.66331 .00341-.44834.16723-.9762.36405-1.17303s.35785-.12038.35785.16988 .65528.67164 1.45617.84755 1.45616.59506 1.45616.93143 .60067.91269 1.33483,1.28067 1.45521.73442 1.60236.81429 .17785-.62301.06825-1.56194c-.24421-2.09173.67105-2.29675 1.12038-.25098 .1759.8009.50395,1.45616.72901,1.45616s.67682.8191 1.00393,1.82021 1.05393,2.2911 1.61515,2.86662c1.46222,1.49947 2.23389,2.50102 2.23389,2.89936 0,.19047.34416.72661.76481,1.1914 1.02184,1.12913 1.26365,4.76785.3989,6.00246-.37308.53264-.67832,1.35253-.67832,1.82196 0,.51008-.49804.97854-1.23768,1.16417-1.22286.30692-1.22577.31898-.24269,1.00755 .97147.68045 1.35701,1.64561.63093,1.5795-.20022-.01823-1.45616-1.30613-2.79099-2.86199zm3.80792-7.56168c-.15808-.41196-.39152-.64491-.51876-.51768s-.08737.4643.0886.74902c.47863.77442.75837.62397.43015-.23134zm4.4709,9.53004c-.28875-.46721 3.43348-2.46575 4.61591-2.47839 .5833-.00622.57813-.08372-.0319-.47795-.57351-.37064-.5864-.47211-.06067-.47796 .48194-.00536.58648-.41207.37618-1.4636-.16429-.82143-.08494-1.45617.18202-1.45617 .26029,0 .47325.21843.47325.48539s.45687.94226 1.01526,1.50066l1.01527,1.01527-1.13662.80139c-.62513.44077-1.24582.80334-1.3793.8057s-.9317.49542-1.77379,1.09568c-1.60971,1.1474-2.83842,1.38974-3.29561.64998zm4.68108-11.79043c-.32035-.32036-.58246-.75721-.58246-.97078 0-.71518.73107-.39823 1.34352.58247 .66375,1.06283.16694,1.31631-.76106.38831zm76.35022-.50966c.19485-.60068.55335-3.49481.79665-6.43141 .26177-3.16103.75167-5.89416 1.20076-6.69936 .63865-1.14507.66797-1.73751.1858-3.74771-.31853-1.32761-.42609-3.25586-.24236-4.34325 .29816-1.76497.23151-1.95562-.68315-1.95562-.57719,0-1.01336-.31338-1.01336-.72808 0-.91753-.93229-.90988-2.15878.01771-.51998.3932-1.33085.59258-1.8019.44306s-1.27834-.04614-1.79379.22974c-1.21763.65161-3.30788-.91691-4.26063-3.19705-.37122-.8885-.9454-1.56172-1.27599-1.49602-.42947.08536-.601-.80218-.601-3.11035 0-1.77638.17191-3.12367.38193-2.99398s.33606-.49195.27997-1.38142 .3157-2.3817.82605-3.31607 .93079-2.0265.93418-2.42695 .22426-.69748.49084-.66009c.66807.0937 3.27461-1.80846 2.93856-2.14446-.14942-.14944.0903-.67167.53269-1.16053s.6346-.88882.42703-.88882-.07758-.38224.28883-.84943c.60377-.76985.58662-.78703-.18325-.18325-.46719.36638-.87677.53021-.91014.36404s-.09285-.57516-.13226-.90887-.48019-.53537-.97961-.44814c-.80494.14059-.86781-.05235-.55287-1.69886 .19541-1.02161.33653-2.37081.31372-2.99823-.06486-1.77726.37951-2.07094 1.92463-1.27194 1.33009.68783 1.4286.67747 1.4286-.15018 0-.48892-.54599-1.62909-1.21349-2.53372-1.44425-1.95765-1.45047-1.98562-.36396-1.644 .76855.24168.77553.20559.07315-.37928-.84189-.70103-.89477-.83422-.97895-2.46657-.04233-.82185-.11124-.88191-.27827-.2427-.12208.46719-.5081.84943-.85783.84943-.89213,0-1.3216-1.93862-.49942-2.25412 .36293-.13924.54005-.56521.39366-.94659-.19325-.50354-.02885-.60238.60038-.36095 .67937.26072.79702.15172.54495-.5051-.20258-.52785-.13169-.72034.19155-.52056 .28204.17435.38998.63728.23981,1.02873s.26593,1.67721.92475,2.85727 1.08764,2.5305.95303,3.00096c-.13904.48604-.00292.39786.31532-.20423 .46303-.87595.37188-1.36418-.52572-2.81653-.59718-.96629-.9914-1.85131-.87602-1.9667 .28601-.28597 3.11682,3.77705 3.52273,5.05616 .17967.56616.48575,1.02939.68003,1.02939 .7431,0 5.89134,11.45962 5.89134,13.11379 0,.42517-.35227.28202-.9897-.40213-.88902-.95432-1.92265-1.40983-1.92265-.84736 0,.33411 2.01503,3.66817 2.21695,3.66817 .09879,0 .04214-.35812-.12584-.79581-.25056-.65306-.14536-.70626.58671-.29657 .49065.27459.93502.90573.98753,1.40255s.23397,1.55859.40327,2.35948 .62772,3.69096 1.01883,6.42237c.76855,5.36825.39111,12.29073-1.00497,18.43227-.3766,1.65665-.68598,3.73169-.68749,4.6112-.00452,2.67712-.95067,5.32588-2.0006,5.60043-.52591.13754-1.49534,1.31396-2.15426,2.61424-1.24545,2.45778-2.04086,3.1673-1.42597,1.27203zm3.24558-46.58125c-.34822-.34829-.57436-.37695-.57436-.07281 0,.64789.57408,1.22192.89798.89798 .13791-.13793-.00764-.50925-.32362-.82517zm-1.27862-.01618c-.40591-1.85072-2.06631-4.72333-2.73277-4.72761-.88789-.00572-2.11665,2.02155-1.80039,2.97035 .11812.35424.63498.66606 1.14854.69292 2.52265.13196 3.1136.24374 3.06063.57894-.08871.56202.0361,1.09213.25725,1.09213 .10982,0 .13989-.27303.06674-.60673zm-68.22105,44.49407c0-.4227.25937-.68207.5764-.5764 .90001.3 1.04929,1.34493.19213,1.34493-.4227,0-.76853-.34583-.76853-.76853zm1.70376-.67971c-.16768-.27133.03564-.49332.45184-.49332 .85261,0 .97814.29127.30488.70736-.24852.15359-.58904.05727-.75673-.21404zm-10.15759-1.29087c-.40635-1.05895.13319-1.55116.70654-.64456s.58621,1.44211.03297,1.44211c-.23841,0-.57119-.3589-.73952-.79755zm-4.16631-5.01189c0-.25858-.32764-.34443-.72809-.19077-.88468.33949-.96471-.47999-.11568-1.18462 .4537-.37654.75633-.20326 1.1678.66865 .30548.6473.35753,1.1769.11568,1.1769s-.43971-.21157-.43971-.47016zm-9.47548-.62451c-.52822-.29117-1.24583-.92846-1.59467-1.41622-.67523-.94412-2.03538-1.21239-2.03538-.40144 0,.26696-.43685.48539-.97078.48539s-.97078-.21842-.97078-.48539-.43685-.48539-.97078-.48539-.97078-.21842-.97078-.48538 .22027-.4854.48951-.4854c.95846,0-.66853-1.84712-2.32114-2.63521-1.10448-.52669-1.56744-1.02969-1.38508-1.5049 .16274-.42408-.00924-.71379-.42371-.71379-.42068,0-.5867.28903-.41823.72809 .2033.52978-.05744.72808-.95737.72808-.68021,0-1.37175-.21842-1.53674-.48539s.14975-.48538.69944-.48538 1.02673-.21842 1.06011-.4854 .08797-.68561.12134-.93033c.0984-.72149.78876-1.22749.78876-.57809 0,.32722.19368.47523.43039.32894s.70031.05923 1.03021.45674 .42018.72274.20062.72274-.14636.25286.16269.5619c.42559.4256.73419.41891 1.2722-.02761 .56999-.47306 1.17935-.35182 3.08474.61371 1.30594.66178 2.6605,1.5479 3.01012,1.96917s1.23747.76595 1.97299.76595c1.35122,0 2.68816-1.03316 2.09914-1.62218-.17566-.17565-.07745-.31938.21825-.31938 1.03522,0 1.12143.96726.1766,1.98141-.63916.68606-1.27358.92152-1.92547.71462-1.69787-.53888-1.80077.76455-.17504,2.21715 1.58817,1.41902 1.49133,2.18388-.16117,1.273zm5.77988-1.42154c-.22575-.36526-.08551-.46085.40178-.27384 .41171.15798.96895.06686 1.23832-.20251 .32941-.3294.59652-.31699.81588.03793 .17937.29023.25863.54392.17614.56376-1.54028.37039-2.34955.33185-2.63211-.12534zm-21.85201-1.44167c-.23141-.37214-1.01374-1.05363-1.7385-1.51441-1.85579-1.17985-2.55033-2.58812-1.47915-2.99917 .45416-.17428.66811-.15924.47544.03345-.49145.49144 1.12842,2.1726 1.73323,1.7988 .27925-.17258.3482-.06787.15798.23992-.20419.33037.14973.66846.89578.8557 1.32994.3338 1.44792.57017.79721,1.59737-.35564.56141-.48677.55959-.84199-.01165zm1.57356-.13041c.14575-.37981.60007-.81913 1.0096-.97628 .53376-.20482.66058-.06677.44786.48756-.16321.42531-.29674.86464-.29674.97629s-.32079.20299-.71285.20299c-.417,0-.60288-.28659-.44787-.69056zm18.63475-.28023c-.65463-1.22319-.10759-1.22319 1.45617,0 1.20064.93916 1.2021.94931.13842.95999-.59127.00594-1.30885-.42605-1.59459-.95999zm-15.53247-.21404c0-.11773.21842-.34905.48539-.51404s.48539-.06867.48539.21405-.21842.51403-.48539.51403-.48539-.09632-.48539-.21404zm1.73913-.69159c-.20909-.33832-.24909-.7462-.08887-.90642 .43441-.43441.90806.2045.67343.90839-.16441.49324-.27875.49285-.58455-.00196zm-6.74753-1.83761c-.18199-.18199-.35673-1.33201-.38832-2.55559-.04836-1.87339-.10584-1.9991-.36405-.79606-.16863.78575-.47042,1.38643-.67065,1.33483s-.55816-.09383-.79542-.09383c-.986,0-1.04042-3.31594-.09275-5.65146 .93189-2.29661 1.06102-2.25944 1.25482.36118 .13778,1.86321.69959,2.49607 1.99584,2.24827 .76039-.14536 1.15658.00526 1.15658.43968 0,.36343-.49146.67462-1.09213.69155l-1.09213.03077 1.09213.43898c.60067.24144 1.08878.71905 1.0847,1.06137-.00572.47903-.10354.4707-.42472-.03619-.22951-.36221-.53939-.46099-.68863-.21952s-.07067.75625.17459,1.14395 .43203,1.03255.41504,1.433c-.02419.57024-.08793.58465-.29402.06643-.18528-.46588-.36327-.49963-.60158-.11405-.18614.30118-.48734.39871-.66933.21672zm48.28901-1.62526c.24432-.73297 1.02487-.8085 1.25392-.12135 .11124.3337-.16179.60673-.60673.60673s-.73618-.21842-.64718-.48538zm-40.81533-.68764c-.02108-.51168.09364-.79836.25493-.63707s.17853.57993.03832.93033c-.15495.38721-.26997.27219-.29325-.29326zm-11.96316-2.83144c-.55602-4.54908-.564-4.7564-.19193-4.98635 .18929-.11698.49448,1.14821.67821,2.81154s.45355,3.51571.59964,4.11637 .04494,1.09213-.22476,1.09213-.65721-1.36516-.86115-3.03369zm7.52026,2.91234c-.36505-1.22814-.35739-2.54894.01853-3.19317 .3616-.6197.47689-.32411.48817,1.25161 .00812,1.1346-.09445,2.06291-.22793,2.06291s-.25893-.0546-.27876-.12135zm21.87861-4.01487c0-.40617-.54606-.98729-1.21348-1.29139-1.056-.48114-1.68104-1.36786-.96419-1.36786 .44757,0 2.41157,1.20152 2.77697,1.69887 .51731.70413.45061,1.69886-.11392,1.69886-.26696,0-.48539-.33232-.48539-.73849zm-24.26949-3.14463c-.35225-.65818-.35775-.97078-.01708-.97078 .27636,0 .50247-.34054.50247-.75674s.21842-.62173.48539-.45674c.62238.38466.63738,3.15504.01707,3.15504-.25757,0-.7021-.43686-.98785-.97078zm-2.41953-1.54887c.00409-.34945.21917-.96303.47797-1.36347 .38253-.59192.47191-.5292.47796.33539 .00408.58492-.211,1.19848-.47796,1.36348-.26697.16499-.48205.01407-.47797-.3354zm-2.98241-1.48482c-.1923-4.84312 1.52441-15.94661 2.52031-16.30101 .25007-.089.45467-.652.45467-1.25115 0-1.31506 2.25802-7.06604 3.12867-7.96845 .51522-.53402.67368-.50891.92521.14656 .19331.50377.11042.6716-.22832.46224-.35201-.21756-.42521.00722-.21653.66475 .2113.66573-.00131,1.28844-.64448,1.88764-1.02142.9516-1.99377,3.09892-1.99377,4.40301 0,.65931.11734.63412.71265-.15295 .39195-.51821.71959-1.54287.72808-2.27702s.23386-1.33483.50083-1.33483c.87761,0 .50694,3.32683-.60673,5.44569-.9353,1.77947-1.1144,1.92103-1.24723.98573-.08531-.60067-.33287-1.09213-.55013-1.09213-.94733,0-1.41223,5.99406-.50825,6.55276 .80741.49901.59329,2.32952-.23529,2.01157-1.06933-.41035-1.56692.99444-1.60849,4.54119-.05618,4.79289-.06352,4.8539-.58317,4.8539-.26697,0-.51358-.70988-.54803-1.57752zm4.54148-.07703c.14913-.78016.02852-1.09434-.36254-.94428-.76924.29519-1.43777-3.67158-.73691-4.37245 .34803-.34803.50372-.06936.50372.90163 0,.85922.50032,1.92756 1.28748,2.74917 1.07524,1.12231 1.18546,1.46673.66865,2.08946-.92495,1.1145-1.61344.90016-1.3604-.42353zm57.06859-8.15032c.45303-.45303.71191-.45303 1.16494,0s.3236.58247-.58247.58247-1.03549-.12944-.58247-.58247zm3.00942.06942c0-.30887.30956-.44281.68791-.29762s.81367-.0637.96736-.46422c.16922-.44099.52009-.57839.8896-.34837 .3356.2089 1.08076.31906 1.65593.2448s1.18873.09628 1.36347.37902c.17725.28679-.07049.5274-.56038.54424-.48294.0166-1.80638.13673-2.94099.26696-1.37472.15779-2.0629.04943-2.0629-.32481zm6.69837-.06942c.45303-.45303.71191-.45303 1.16494,0s.3236.58247-.58247.58247-1.03549-.12944-.58247-.58247zm-11.19974-2.61353c-.74048-.4016-1.59332-.57753-1.89521-.39096-.33596.20764-.41453.12185-.20254-.22116 .22016-.35622-.02822-.56039-.68173-.56039-.56544,0-.92201.17162-.79237.38138s-.18511.38138-.69943.38138c-1.29114,0-1.17149-.67589.23294-1.31578 .9425-.42944 1.73928-.31073 4.12582.61467 2.90756,1.12743 3.78163,1.89876 2.1083,1.86048-.46719-.01069-1.45528-.34802-2.19577-.74962zm43.33258-6.48314c0-.28272.21841-.51404.48538-.51404s.48537.09632.48537.21405-.21841.34905-.48537.51404-.48538.06866-.48538-.21405zm.97075-8.97971c0-.11773.21842-.34904.48538-.51403s.48537-.06867.48537.21404-.21841.51404-.48537.51404-.48538-.09632-.48538-.21405zm-96.10719-2.39831c0-.40044.21842-.86307.48539-1.02806 .26696-.165.48539.02765.48539.4281s-.21843.86307-.48539,1.02807c-.26696.16499-.48539-.02765-.48539-.4281zm1.94156-.02864c0-.11773.21842-.34905.48539-.51404s.4854-.06867.4854.21405-.21843.51403-.4854.51403-.48539-.09632-.48539-.21404zm2.91234-2.66965c0-.28271.21842-.51403.48538-.51403s.4854.09632.4854.21405-.21843.34904-.4854.51403-.48538.06867-.48538-.21405zm.71704-4.41501c-.16431-.26585-.55668-.32866-.87193-.13957-.32655.19585-.28653-.00962.09297-.47748 .69277-.85405 2.25483-1.10724 2.67152-.43302 .13197.21353-.17265.64591-.67693.96083-.59224.36986-1.02265.40145-1.21562.08923zm64.17436-6.83297c-.4834-.28119-1.20463-.38626-1.60273-.2335-.40871.15684-.59472.06887-.42726-.20207 .16311-.26391.02884-.47983-.29838-.47983-1.07608,0 .02218-.64259 1.33802-.78289 1.51156-.16116 4.21398,1.10134 3.79805,1.77434-.37387.60492-1.69869.56904-2.8077-.07605z" fill="#fff" opacity=".78365"/>
 <path transform="matrix(1.172 -.20957 .14765 .82572 -164.67 43.725)" d="m222.45 56.486a28.884 28.884 0 1 1 -57.769 0 28.884 28.884 0 1 1 57.769 0z" fill="url(#c)" opacity=".76923" stroke="url(#l)" stroke-width=".86461"/>
 <path transform="matrix(-1.4232 .62382 -.45596 -1.0402 389.72 43.512)" d="m222.45 56.486a28.884 28.884 0 1 1 -57.769 0 28.884 28.884 0 1 1 57.769 0z" fill="url(#d)"/>
 <path d="m57.377 11.343c19.187 2.4649 33.934 20.7 36.872 28.312-5.5212 3.2779-11.367 5.343-11.367 5.343l34.283 16.017 14.692-33.628-10.256 3.1458c-9.2894-14.738-23.02-21.009-32.906-24.067s-27.696 1.761-31.318 4.8784z" fill="url(#g)" fill-rule="evenodd" stroke="#3d7311" stroke-width="2"/>
 <path d="m146.94 97.896c-11.728 15.384-34.894 19.038-42.955 17.776-0.07818-6.4204 1.0564-12.516 1.0564-12.516l-31.012 21.682 21.777 29.538 2.4035-10.455c17.408-0.67582 29.704-9.4312 37.296-16.464s12.323-24.866 11.434-29.561z" fill="url(#e)" fill-rule="evenodd" stroke="#3d7311" stroke-width="2"/>
 <path d="m27.164 133.07c-7.4587-17.849 0.95946-39.738 6.0827-46.088 5.5994 3.1425 10.311 7.1728 10.311 7.1728l-3.2706-37.698-36.469 4.0905 7.8522 7.3088c-8.1188 15.414-6.6846 30.44-4.3896 40.531s15.373 23.105 19.884 24.683z" fill="url(#f)" fill-rule="evenodd" stroke="#3d7311" stroke-width="2"/>
</svg>
