<?xml version="1.0" encoding="UTF-8"?>
<svg viewBox="0 0 89 89" xmlns="http://www.w3.org/2000/svg">
 <path d="m53.593 67.134c-0.25393-0.2954-1.3278-2.1977-2.3865-4.2273l-1.9248-3.6902 1.9116-3.8289c2.0966-4.1994 2.587-4.9031 3.4167-4.9031s1.1908 0.96225 1.1908 3.2023v2.0151h5.8487c3.3533 0 6.4403-0.14895 7.2352-0.3491 1.7788-0.4479 3.3291-1.9072 3.7715-3.5501 0.67572-2.5094 0.47607-2.9489-7.9545-17.508-1.393-2.4055-2.5326-4.7184-2.5326-5.1397 0-1.05 0.47207-1.5364 2.6998-2.7823 1.6226-0.9074 2.0261-1.0197 2.6386-0.7346 0.45453 0.21161 1.5776 1.8388 3.0241 4.3816 1.2656 2.2248 3.8428 6.7098 5.7272 9.9668 2.0272 3.5038 3.578 6.5548 3.7981 7.4721 0.57033 2.3774 0.25019 5.9138-0.71969 7.9502-1.0271 2.1564-3.1041 4.3341-5.0971 5.344-2.8889 1.4639-4.5241 1.7006-11.752 1.7006h-6.6874v2.1232c0 1.1678-0.08383 2.3417-0.18629 2.6087-0.24877 0.64829-1.4463 0.61771-2.0217-0.05163zm-32.626-4.9689c-1.7437-0.42754-4.245-1.9234-5.6803-3.3969-2.6329-2.7031-3.742-6.2896-3.1164-10.078 0.46608-2.8222 1.1798-4.3924 4.604-10.129 1.5464-2.5905 2.8117-4.8216 2.8117-4.9579s-0.72962-0.65963-1.6214-1.1629c-2.1139-1.193-2.5134-1.675-2.072-2.4999 0.18645-0.34838 0.64488-0.64725 1.0187-0.66414 1.5934-0.072 6.0195 0.0609 7.4839 0.22472l1.5868 0.17751 2.4797 3.6749c2.5351 3.757 2.9324 4.8969 1.8991 5.4499-0.4547 0.24335-1.0185 0.07842-2.5991-0.76037l-2.0184-1.0711-0.43349 0.69443c-1.2495 2.0016-4.6847 7.9388-5.3109 9.1789-1.0614 2.1019-0.99667 4.3917 0.16956 6.0016 1.6618 2.294 2.0919 2.3701 14.404 2.5458 12.708 0.18138 11.714-0.14831 11.714 3.8855 0 2.1964-0.08016 2.5821-0.59363 2.8569-0.68406 0.3661-23.243 0.39267-24.726 0.02912zm6.5689-34.944c-2.0426-1.1997-2.4256-1.582-2.4256-2.4211 0-0.41277 2.5175-5.1236 5.5973-10.474 6.0813-10.565 7.0985-11.901 10.215-13.426 1.6738-0.81871 2.1188-0.89762 5.0717-0.89941 3.0835-0.00186 3.3358 0.04818 5.3219 1.0555 3.0456 1.5447 4.993 3.8493 8.3209 9.8468 1.5192 2.7379 2.9002 5.163 3.069 5.3892 0.24625 0.32992 0.63767 0.20105 1.9807-0.65216 2.4414-1.551 3.7658-1.3292 3.2767 0.54859-0.21296 0.81749-4.3364 7.3106-4.8404 7.6221s-8.6534 0.69288-9.4331 0.44538c-0.43165-0.137-0.65126-0.46175-0.65126-0.96304 0-0.59142 0.39851-1.0052 1.8276-1.8975 1.0052-0.62763 1.8338-1.2642 1.8414-1.4147 0.0187-0.36871-5.0771-9.2808-6.0484-10.578-0.86966-1.1616-2.8388-2.1782-4.219-2.1782-1.2393 0-3.1929 0.93993-4.1971 2.0194-0.45164 0.48548-3.0454 4.7497-5.764 9.476s-5.1721 8.766-5.4523 8.977c-0.78489 0.59095-1.9434 0.43303-3.4909-0.47582z"/>
 <path d="m51.006 46.744h-9.672v-3.8493h3.0554v-11.652h-3.0554v-3.5976c0.46706 2e-5 0.91465-0.04193 1.3428-0.12584s0.78491-0.22946 1.0703-0.43675c0.33731-0.24673 0.59031-0.5675 0.75897-0.96232s0.26596-0.88828 0.29191-1.4805h3.2208v18.255h2.9872v3.8493z"/>
 <path d="m37.011 76.072c-2e-5 0.84067-0.13299 1.6624-0.39892 2.4652s-0.64588 1.4775-1.1398 2.0239c-0.67628 0.73978-1.4304 1.2988-2.2624 1.6771s-1.8673 0.56745-3.1059 0.56744h-2.724v6.1158h-4.3767v-18.776h7.2033c1.079 2e-5 1.9889 0.103 2.7298 0.30894s1.3962 0.51492 1.9661 0.92682c0.68385 0.496 1.2062 1.1307 1.5672 1.9041s0.54137 1.7023 0.54139 2.7868zm-4.5249 0.11349c-1e-5 -0.5296-0.12918-0.98566-0.38752-1.3682s-0.5585-0.64939-0.90042-0.80072c-0.45592-0.20174-0.90043-0.31313-1.3335-0.33416s-1.0106-0.03151-1.7324-0.03152h-0.75225v5.624h1.2538c0.74464 1e-5 1.3582-0.05043 1.8407-0.15132s0.88711-0.30263 1.2138-0.60527c0.28113-0.269 0.48439-0.59055 0.60978-0.96465s0.18805-0.83013 0.18806-1.3682zm19.889 12.736h-12.275v-18.776h12.275v3.6316h-7.9214v3.2407h7.3515v3.6316h-7.3515v4.6404h7.9214v3.6316zm16.96-15.144h-5.2999v15.144h-4.3767v-15.144h-5.2999v-3.6316h14.977v3.6316z"/>
</svg>
