<?xml version="1.0" encoding="UTF-8"?>
<svg viewBox="0 0 89 89" xmlns="http://www.w3.org/2000/svg">
 <path d="m49.93022,37.93715c.39161.33569.70331.72731.9351,1.17487s.34765,1.04301.34766,1.78629c-1e-005,.83919-.16586,1.62244-.49752,2.34974s-.84121,1.3507-1.52853,1.8702c-.67137.50352-1.46061.88914-2.36772,1.15689s-2.00808.40161-3.30283.40161c-1.47859,0-2.74736-.11589-3.80634-.34766s-1.92016-.49153-2.58352-.77926v-3.92023h.46755c.68734.41561 1.50855.77526 2.46363,1.07897s1.82824.45556 2.61948.45556c.46355,0 .96706-.03796 1.51055-.11389s1.00303-.24177 1.37868-.49753c.2957-.1998.53148-.44157.70732-.7253s.26374-.69333.26375-1.22882c-1e-005-.51949-.11989-.9211-.35965-1.20484s-.55548-.48552-.94709-.60542c-.39163-.12787-.86318-.1978-1.41464-.2098s-1.06299-.01797-1.53453-.01798h-.98306v-3.18893h1.01902c.62339,1e-005 1.17486-.01997 1.65441-.05995s.88714-.13186 1.22283-.27573c.35165-.15184.6154-.35365.79124-.60542s.26374-.62139.26375-1.10893c-1e-005-.35964-.09192-.64936-.27574-.86917s-.41561-.3936-.69533-.5215c-.31171-.14384-.67936-.23975-1.10294-.28772s-.78725-.07192-1.09095-.07193c-.75128,1e-005-1.5665.12989-2.44565.38963s-1.73034.6334-2.55355,1.12092h-.44357v-3.87228c.65537-.26373 1.54651-.51748 2.67343-.76127s2.26981-.36563 3.4287-.36565c1.12691,2e-005 2.11396.09793 2.96115.29372s1.5465.45758 2.09798.78525c.65536.39164 1.14289.86718 1.46259,1.42663s.47952,1.21484.47954,1.96611c-2e-005,.99106-.30772,1.8762-.92311,2.65544s-1.42664,1.27679-2.43366,1.49257v.16784c.4076.05595.83918.16784 1.29476.33567s.87115.41162 1.2468.7313z"/>
 <path d="m33.34402,76.11673c-2e-005,.79924-.13988,1.58049-.4196,2.34375s-.67936,1.40465-1.19885,1.92415c-.71133.70333-1.50457,1.23482-2.37971,1.59446s-1.96412.53949-3.26686.53948h-2.86525v5.81442h-4.60357v-17.85085h7.57672c1.1349,2e-005 2.09198.09793 2.87124.29372s1.46857.48955 2.06801.88115c.71929.47157 1.26876,1.07499 1.64842,1.81026s.56944,1.61846.56945,2.64946zm-4.75943.10789c-1e-005-.5035-.13588-.93708-.40761-1.30075s-.58745-.61739-.94709-.76126c-.47955-.1918-.9471-.2977-1.40265-.3177s-1.06299-.02995-1.82225-.02997h-.79124v5.34686h1.31873c.78324,1e-005 1.42862-.04794 1.93614-.14386s.93309-.28771 1.27677-.57545c.2957-.25574.5095-.56145.64138-.91712s.1978-.78923.19781-1.30075zm24.19275-5.74248-6.50974,17.85085h-5.15505l-6.50974-17.85085h4.83136l4.31585,12.53995 4.31585-12.53995h4.71147zm10.63378,18.19851c-1.32673,0-2.55156-.19581-3.67447-.58743s-2.088-.97507-2.89522-1.75032-1.43263-1.74232-1.8762-2.90121-.66536-2.49759-.66536-4.01614c0-1.41463.2118-2.6974.63539-3.8483s1.039-2.13793 1.84623-2.96116c.77525-.79122 1.73633-1.40263 2.88323-1.83423s2.39969-.64736 3.75839-.64738c.75127,2e-005 1.42862.04198 2.03205.12588s1.16087.19383 1.67239.32968c.53547.15187 1.021.32171 1.4566.50951s.8172.36167 1.1449.5215v4.32784h-.52749c-.2238-.1918-.50553-.41958-.84519-.68334s-.72532-.52349-1.15689-.77925c-.43959-.25574-.91513-.47154-1.42663-.64738s-1.05899-.26373-1.64242-.26375c-.64739,2e-005-1.2628.10192-1.84623.30571s-1.12293.54149-1.61844,1.01302c-.47155.45558-.85319,1.059-1.1449,1.81026s-.43758,1.66242-.43758,2.73338c-1e-005,1.11893.15784,2.05403.47355,2.8053s.71331,1.34271 1.19285,1.77429c.48752.43959 1.031.75328 1.63043.9411s1.19085.28173 1.7743.28173c.55945,0 1.11292-.08392 1.6604-.25176s1.05297-.39562 1.51654-.68334c.39161-.23178.75526-.47954 1.09095-.74329s.6114-.49152.8272-.68334h.47954v4.2679c-.44759.19981-.87517.38763-1.28277.56346s-.83521.32768-1.28277.45556c-.58345.16784-1.13093.29571-1.64242.38363s-1.21484.13187-2.10997.13187z"/>
 <path d="m51.593 67.134c-0.25393-0.2954-1.3278-2.1977-2.3865-4.2273l-1.9248-3.6902 1.9116-3.8289c2.0966-4.1994 2.587-4.9031 3.4167-4.9031s1.1908 0.96226 1.1908 3.2023v2.0151h5.8487c3.3533 0 6.4403-0.14895 7.2352-0.34911 1.7788-0.4479 3.3291-1.9072 3.7715-3.5501 0.67572-2.5094 0.47607-2.9489-7.9545-17.508-1.393-2.4055-2.5326-4.7184-2.5326-5.1397 0-1.05 0.47207-1.5364 2.6998-2.7822 1.6226-0.9074 2.0261-1.0197 2.6386-0.7346 0.45453 0.21161 1.5776 1.8388 3.0241 4.3816 1.2656 2.2248 3.8428 6.7098 5.7272 9.9668 2.0272 3.5038 3.578 6.5548 3.7981 7.4721 0.57032 2.3774 0.25019 5.9138-0.71969 7.9502-1.0271 2.1564-3.1041 4.3341-5.0971 5.344-2.8889 1.4639-4.5241 1.7006-11.752 1.7006h-6.6874v2.1232c0 1.1678-0.08383 2.3417-0.18629 2.6087-0.24877 0.6483-1.4463 0.61772-2.0217-0.05162zm-32.626-4.9689c-1.7437-0.42753-4.245-1.9234-5.6803-3.3969-2.6329-2.7031-3.742-6.2896-3.1164-10.078 0.46608-2.8222 1.1798-4.3924 4.604-10.129 1.5464-2.5905 2.8117-4.8216 2.8117-4.9579s-0.72962-0.65963-1.6214-1.1629c-2.1139-1.193-2.5134-1.675-2.072-2.4999 0.18645-0.34838 0.64488-0.64725 1.0187-0.66414 1.5934-0.072 6.0195 0.0609 7.4839 0.22472l1.5868 0.17751 2.4797 3.6749c2.5351 3.757 2.9324 4.8969 1.8991 5.4499-0.4547 0.24334-1.0185 0.07842-2.5991-0.76037l-2.0184-1.0711-0.43349 0.69444c-1.2495 2.0016-4.6847 7.9388-5.3109 9.1789-1.0614 2.1019-0.99667 4.3917 0.16956 6.0016 1.6618 2.294 2.0919 2.3701 14.404 2.5458 12.708 0.18138 11.714-0.14831 11.714 3.8855 0 2.1964-0.08016 2.5821-0.59363 2.8569-0.68406 0.3661-23.243 0.39267-24.726 0.02912zm6.5689-34.944c-2.0426-1.1997-2.4256-1.582-2.4256-2.4211 0-0.41278 2.5175-5.1236 5.5973-10.474 6.0813-10.565 7.0985-11.901 10.215-13.426 1.6738-0.81871 2.1188-0.89762 5.0717-0.8994 3.0835-0.00187 3.3358 0.04818 5.3219 1.0555 3.0456 1.5447 4.993 3.8493 8.3209 9.8468 1.5192 2.7379 2.9002 5.163 3.069 5.3892 0.24625 0.32993 0.63767 0.20105 1.9807-0.65216 2.4414-1.551 3.7658-1.3292 3.2767 0.54859-0.21296 0.8175-4.3364 7.3106-4.8404 7.6221s-8.6534 0.69287-9.4331 0.44538c-0.43165-0.137-0.65126-0.46175-0.65126-0.96304 0-0.59141 0.39851-1.0052 1.8276-1.8975 1.0052-0.62763 1.8338-1.2642 1.8414-1.4147 0.0187-0.36871-5.0771-9.2808-6.0484-10.578-0.86966-1.1616-2.8388-2.1782-4.219-2.1782-1.2393 0-3.1929 0.93993-4.1971 2.0194-0.45164 0.48548-3.0454 4.7497-5.764 9.476s-5.1721 8.766-5.4523 8.977c-0.78489 0.59095-1.9434 0.43304-3.4909-0.47581z"/>
</svg>
