<?xml version="1.0" standalone="no"?>
<!DOCTYPE svg PUBLIC "-//W3C//DTD SVG 20010904//EN"
 "http://www.w3.org/TR/2001/REC-SVG-20010904/DTD/svg10.dtd">
<svg version="1.0" xmlns="http://www.w3.org/2000/svg"
 width="388.000000pt" height="640.000000pt" viewBox="0 0 388.000000 640.000000"
 preserveAspectRatio="xMidYMid meet">

<g transform="translate(0.000000,640.000000) scale(0.100000,-0.100000)"
fill="#000000" stroke="none">
<path d="M2643 6287 c5 -14 2 -20 -13 -24 -11 -3 -20 -12 -20 -19 0 -19 -10
-18 -26 4 -12 16 -13 15 -14 -8 0 -20 -2 -22 -10 -10 -8 12 -10 12 -10 1 0 -8
-3 -11 -7 -8 -3 4 -12 2 -19 -4 -9 -8 -11 -5 -7 10 3 12 -2 27 -11 36 -15 15
-16 15 -16 0 0 -12 -5 -15 -16 -11 -12 5 -15 2 -10 -10 5 -12 2 -15 -10 -10
-14 5 -15 4 -4 -9 7 -9 10 -19 6 -22 -4 -4 -11 -1 -16 7 -9 13 -14 7 -11 -12
0 -4 -11 -11 -25 -14 -19 -5 -24 -12 -21 -25 4 -16 1 -18 -19 -15 -13 3 -24 1
-24 -4 0 -5 -6 -7 -14 -4 -7 3 -16 -2 -19 -10 -4 -9 -11 -16 -17 -16 -7 0 -7
7 1 23 12 22 12 22 -10 3 -21 -19 -21 -19 -21 0 -1 25 -21 50 -40 48 -36 -3
-40 -5 -40 -23 0 -11 -7 -26 -15 -35 -9 -8 -12 -22 -8 -32 4 -11 3 -15 -5 -10
-6 3 -13 2 -17 -4 -11 -18 -35 -11 -47 14 -9 21 -13 23 -24 11 -8 -7 -14 -18
-14 -24 0 -6 -4 -11 -10 -11 -5 0 -19 -10 -31 -22 -20 -21 -21 -21 -15 -3 5
16 3 15 -13 -5 -15 -19 -17 -28 -8 -38 9 -11 7 -13 -9 -11 -10 2 -30 -7 -42
-19 -13 -13 -27 -20 -32 -17 -5 3 -7 0 -4 -8 3 -8 -1 -19 -8 -23 -14 -9 -19
-10 -58 -12 -19 -2 -21 -5 -12 -14 15 -15 16 -58 1 -58 -6 0 -7 -5 -2 -12 4
-7 8 -17 9 -23 1 -5 5 -18 9 -28 6 -14 3 -16 -11 -11 -11 4 -26 12 -34 18 -12
8 -13 8 -2 -4 18 -21 15 -28 -13 -25 -14 2 -28 -2 -32 -7 -4 -7 2 -9 15 -6 24
7 27 -3 11 -34 -7 -12 -7 -18 -1 -14 6 3 17 3 26 0 11 -4 13 -11 5 -31 -12
-31 -11 -36 2 -28 6 4 22 -4 36 -16 15 -13 23 -18 19 -11 -4 6 -3 12 2 12 6 0
12 -7 16 -15 3 -8 11 -15 18 -15 8 0 22 -9 31 -21 18 -20 19 -20 32 -2 13 17
14 17 20 0 6 -14 10 -15 21 -6 11 9 14 8 14 -5 0 -9 5 -16 11 -16 5 0 7 5 3
11 -4 7 -1 10 7 7 8 -3 14 -14 13 -25 0 -14 5 -19 17 -16 11 3 19 -2 22 -14 4
-16 5 -16 6 0 0 9 6 17 12 17 6 0 9 -9 6 -20 -3 -13 0 -20 10 -20 8 0 11 5 8
10 -11 18 25 23 50 6 29 -19 33 -46 8 -47 -10 -1 -3 -6 15 -11 17 -6 32 -14
32 -18 0 -8 -58 -24 -74 -21 -5 1 -3 -5 4 -14 12 -14 9 -15 -26 -10 -21 3 -47
6 -56 6 -11 0 -18 8 -18 21 0 14 -5 18 -15 14 -9 -3 -15 0 -15 9 0 19 -3 19
-42 -6 -18 -12 -26 -19 -18 -16 8 2 21 -2 28 -9 10 -12 10 -14 -3 -14 -12 0
-15 -6 -10 -22 7 -22 6 -22 -7 -4 -13 17 -15 14 -13 -29 2 -31 -2 -48 -11 -52
-8 -3 -11 -9 -8 -14 3 -5 -3 -9 -13 -10 -11 0 -13 -3 -5 -6 6 -2 10 -9 6 -14
-3 -5 2 -9 10 -9 9 0 16 -9 16 -21 0 -11 5 -17 10 -14 13 8 13 -1 0 -26 -8
-13 -7 -19 0 -19 6 0 8 -5 5 -10 -4 -6 -10 -8 -15 -5 -5 3 -5 -8 0 -25 5 -19
5 -28 -1 -25 -5 4 -12 -1 -15 -9 -3 -9 -12 -16 -19 -16 -33 0 -18 -46 31 -94
13 -12 6 -46 -9 -46 -6 0 -8 -3 -4 -6 3 -3 0 -12 -6 -19 -10 -11 -15 -10 -29
2 -10 9 -18 12 -19 7 -1 -16 -18 31 -18 53 -1 15 6 23 22 26 15 3 13 4 -5 2
-19 -1 -28 3 -28 13 0 12 -4 11 -20 -3 -20 -18 -21 -18 -14 0 5 12 4 16 -4 11
-6 -4 -21 -2 -33 4 -20 11 -20 11 -4 -14 16 -24 16 -26 1 -26 -10 0 -14 -5
-11 -11 4 -5 -2 -18 -13 -27 -12 -11 -18 -27 -16 -44 2 -20 -2 -28 -14 -28
-12 0 -13 -3 -4 -12 17 -17 15 -29 -3 -22 -13 6 -20 -6 -16 -29 0 -4 -2 -6 -6
-6 -26 4 -34 -2 -28 -23 6 -17 4 -20 -9 -15 -11 4 -16 1 -16 -10 0 -13 -3 -13
-15 -3 -13 11 -14 10 -10 -2 5 -12 0 -14 -21 -10 l-27 5 21 -31 c15 -20 19
-33 12 -37 -6 -4 -14 -4 -17 -1 -4 3 -15 -6 -25 -21 -16 -25 -18 -26 -19 -8 0
11 -3 14 -6 7 -2 -6 -9 -10 -14 -6 -5 3 -9 -2 -9 -11 0 -11 -5 -15 -15 -11
-10 4 -15 -1 -15 -14 0 -12 5 -17 14 -14 8 3 17 1 21 -5 6 -10 -21 -16 -54
-11 -13 1 -13 -1 -2 -14 11 -13 11 -16 0 -16 -12 0 -12 -2 -1 -9 11 -7 11 -11
-2 -24 -9 -8 -16 -21 -16 -27 0 -6 -4 -9 -8 -6 -10 6 -9 -24 1 -41 4 -6 1 -14
-5 -16 -8 -3 -6 -6 5 -6 10 -1 15 -6 12 -12 -4 -6 -13 -8 -20 -6 -9 4 -11 -5
-8 -31 2 -22 -1 -38 -9 -43 -11 -7 -11 -9 0 -9 7 0 10 -4 7 -10 -4 -6 1 -7 12
-3 16 6 16 5 4 -10 -12 -15 -11 -17 3 -17 9 0 15 -3 14 -7 -2 -5 7 -18 20 -31
19 -19 23 -20 28 -7 3 8 10 13 14 10 5 -3 6 4 3 15 -3 11 0 20 6 20 6 0 11 -6
12 -12 0 -7 5 -3 11 9 15 30 67 37 78 9 5 -12 9 -15 9 -8 1 22 21 13 22 -10 1
-20 2 -20 6 -4 3 11 13 27 22 35 9 9 10 12 2 6 -11 -8 -13 -6 -9 5 5 13 24 16
53 6 34 -11 46 -20 41 -33 -3 -8 -1 -11 4 -8 6 3 10 2 10 -4 0 -5 -5 -13 -11
-16 -6 -5 -4 -12 8 -22 13 -11 15 -16 5 -20 -9 -3 -7 -10 8 -23 l21 -19 -21
-11 c-11 -6 -24 -9 -29 -6 -4 3 -6 -5 -4 -18 4 -17 10 -22 24 -19 20 6 24 -4
10 -26 -6 -9 -11 -10 -15 -2 -10 16 -26 13 -26 -4 0 -9 -6 -18 -13 -21 -8 -3
-14 -11 -14 -18 0 -8 5 -12 12 -10 15 6 12 -46 -4 -55 -10 -6 -9 -10 3 -14 14
-6 21 7 18 34 -1 8 30 5 45 -4 6 -4 19 -4 30 0 15 6 16 5 5 -9 -8 -10 -9 -19
-4 -22 6 -3 12 0 15 7 5 15 34 16 55 4 8 -6 10 -3 6 7 -4 11 0 16 14 16 11 0
22 -5 24 -12 3 -8 27 -12 66 -13 48 0 62 -3 62 -15 1 -12 3 -11 11 3 5 9 16
17 24 17 9 0 12 6 9 15 -4 8 -1 15 6 15 7 0 10 8 7 20 -4 15 5 27 36 50 22 16
49 30 58 30 16 0 34 -26 30 -43 -1 -5 3 -6 8 -3 5 3 14 -1 21 -9 10 -12 9 -16
-4 -21 -9 -3 -13 -10 -10 -15 3 -5 -2 -6 -10 -3 -9 3 -16 1 -16 -5 0 -6 -3
-10 -7 -9 -5 2 -9 -1 -10 -7 -1 -5 -8 -12 -15 -15 -9 -3 -11 -15 -7 -40 4 -19
7 -28 8 -19 0 9 8 20 17 23 9 3 12 2 9 -5 -4 -6 -1 -16 7 -22 7 -7 11 -11 9
-10 -7 5 -31 -19 -31 -30 0 -6 3 -8 6 -4 3 3 14 -2 24 -11 22 -18 9 -45 -16
-35 -12 4 -13 0 -4 -22 6 -15 8 -30 5 -33 -3 -3 -5 0 -5 6 0 7 -3 11 -7 10
-15 -4 -53 13 -53 23 0 6 -5 7 -12 3 -7 -5 -9 -2 -5 8 4 12 1 14 -14 11 -15
-4 -19 0 -19 18 0 18 -2 21 -9 10 -8 -12 -12 -13 -25 -1 -9 7 -14 20 -11 29 2
9 1 22 -4 29 -6 10 -10 4 -15 -20 -5 -26 -9 -30 -16 -18 -5 8 -10 26 -10 38 0
28 -20 25 -35 -5 -11 -21 -35 -20 -35 3 0 19 -19 18 -26 -1 -4 -8 -10 -13 -15
-10 -4 3 -17 0 -28 -7 -15 -9 -17 -16 -9 -31 5 -10 7 -21 4 -24 -3 -3 -10 7
-16 23 -9 22 -13 25 -20 14 -5 -8 -12 -12 -15 -8 -3 3 1 13 10 22 20 19 15 20
-20 4 -24 -11 -29 -9 -51 18 -14 16 -23 21 -20 12 3 -9 0 -19 -7 -22 -9 -3 -9
-5 1 -5 6 -1 12 -6 12 -12 0 -6 -7 -8 -16 -5 -14 5 -15 4 -5 -8 9 -11 8 -15
-5 -20 -9 -3 -20 -4 -25 -1 -5 4 -6 -1 -2 -10 4 -13 1 -16 -18 -13 -18 2 -24
-1 -23 -15 2 -13 -1 -15 -11 -7 -16 13 -45 3 -45 -16 0 -8 -7 -14 -15 -14 -9
0 -12 -6 -9 -17 5 -16 4 -16 -8 -2 -7 8 -21 18 -30 22 -10 3 -18 15 -18 26 0
14 -5 18 -19 14 -12 -3 -24 3 -34 17 -8 12 -20 19 -26 15 -6 -3 -11 0 -11 7 0
9 -3 9 -10 -2 -9 -13 -11 -13 -20 0 -8 12 -10 11 -10 -8 0 -21 -1 -22 -16 -8
-18 18 -34 13 -34 -12 0 -9 -4 -23 -9 -31 -8 -12 -12 -12 -25 -2 -9 8 -16 10
-16 7 0 -4 -10 -2 -21 5 -17 9 -20 8 -14 -2 6 -9 3 -11 -8 -6 -11 4 -17 1 -17
-9 0 -9 -5 -12 -12 -8 -8 5 -9 2 -5 -9 5 -12 1 -17 -13 -17 -11 0 -20 -4 -20
-9 0 -5 -9 -12 -19 -16 -13 -4 -17 -12 -14 -26 4 -12 0 -25 -8 -30 -23 -14
-29 -11 -30 19 0 24 -1 25 -9 7 -5 -12 -9 -14 -9 -6 -1 8 -4 11 -7 8 -4 -3
-15 -2 -25 3 -14 8 -20 6 -28 -7 -5 -10 -13 -15 -17 -11 -3 4 -16 3 -27 -3
-14 -8 -18 -8 -13 0 4 6 2 11 -3 11 -6 0 -11 -7 -11 -15 0 -9 -6 -12 -15 -9
-8 4 -15 1 -15 -5 0 -6 -6 -10 -12 -9 -8 2 -12 -6 -10 -20 3 -23 3 -23 -26 -8
-17 9 -37 23 -46 32 -16 15 -16 14 -12 -11 4 -21 2 -25 -10 -21 -9 3 -12 2 -9
-5 4 -5 1 -16 -5 -24 -10 -12 -10 -15 0 -15 9 0 9 -4 -1 -17 -12 -15 -12 -16
3 -11 17 7 48 -19 48 -41 0 -7 5 -9 10 -6 19 12 49 -5 43 -23 -6 -15 -4 -15 9
-4 21 17 58 -4 58 -33 0 -12 3 -16 8 -9 9 14 102 27 102 14 0 -6 -7 -10 -15
-10 -8 0 -15 -4 -15 -9 0 -5 8 -7 18 -4 12 3 19 -1 19 -11 0 -9 -2 -14 -5 -12
-7 7 -30 -18 -25 -27 2 -4 13 -2 24 3 21 12 21 10 21 -35 -1 -24 2 -20 16 22
21 63 44 59 46 -8 2 -60 11 -73 50 -64 58 12 63 13 101 24 39 11 60 7 50 -10
-8 -12 -1 -11 29 2 19 9 31 8 57 -5 50 -25 86 -21 101 11 8 17 25 30 47 35 43
12 50 4 22 -26 -13 -14 -21 -31 -18 -38 4 -9 6 -8 6 3 1 9 10 24 20 33 18 16
20 16 35 -6 9 -12 16 -28 16 -34 0 -7 7 -14 15 -18 20 -7 20 18 0 34 -8 7 -15
21 -15 31 0 10 -4 21 -10 24 -5 3 -10 10 -10 15 0 16 175 -3 185 -20 3 -5 15
-6 28 -3 18 4 19 3 7 -6 -13 -10 -13 -13 3 -25 9 -7 17 -19 17 -27 1 -18 25
-50 33 -43 10 11 57 -6 54 -19 -1 -7 8 -11 25 -10 18 1 29 -4 33 -16 7 -22 36
-23 52 -2 8 11 12 12 13 4 0 -7 9 -13 21 -13 13 0 19 -5 17 -12 -3 -7 -15 -46
-29 -87 -25 -79 -44 -96 -88 -80 -19 8 -22 6 -18 -5 5 -12 1 -13 -18 -6 -19 7
-23 6 -19 -5 3 -8 2 -20 -2 -27 -5 -7 -9 -15 -10 -18 -10 -52 -29 -90 -45 -90
-4 0 -18 14 -30 32 -13 17 -17 28 -9 23 9 -5 11 -4 6 3 -12 19 -26 14 -26 -10
0 -19 -2 -20 -10 -8 -8 12 -11 13 -19 1 -6 -9 -11 -10 -15 -2 -11 16 -26 13
-20 -4 16 -41 -27 0 -48 45 -5 12 -7 12 -7 -2 -1 -29 -21 -20 -22 10 -1 26 -1
25 -9 -6 -4 -18 -11 -36 -15 -40 -5 -4 -5 3 -2 16 5 22 -8 32 -15 10 -2 -6
-14 4 -26 23 -12 19 -22 28 -22 22 0 -7 -5 -13 -11 -13 -6 0 -9 7 -5 15 3 9 0
15 -10 15 -11 0 -14 5 -10 16 5 14 4 15 -9 4 -13 -11 -18 -10 -30 6 -8 10 -15
14 -15 8 0 -14 -32 -13 -41 0 -4 5 -16 2 -28 -6 -11 -8 -18 -18 -14 -21 3 -4
-4 -7 -16 -7 -17 0 -21 -4 -16 -19 5 -16 -1 -19 -37 -23 -40 -4 -76 11 -61 26
4 3 -6 5 -20 4 -15 -1 -27 -7 -27 -12 0 -6 -7 -3 -15 5 -12 11 -13 22 -7 40 7
18 5 27 -7 37 -14 12 -13 13 10 8 18 -4 26 -1 26 9 0 7 -3 13 -6 13 -16 -3
-60 15 -56 23 3 4 -3 13 -14 19 -14 7 -22 7 -26 -1 -4 -6 -14 -8 -22 -5 -8 3
-12 2 -9 -3 8 -12 -23 -25 -51 -22 -14 2 -23 -3 -23 -11 0 -11 -2 -11 -9 0
-11 18 -32 12 -56 -15 -11 -13 -27 -23 -35 -22 -10 0 -8 3 4 8 18 7 17 9 -12
24 -30 14 -32 14 -32 -1 0 -14 -2 -15 -9 -2 -6 8 -7 18 -5 22 3 4 0 8 -7 8 -6
0 -9 -8 -6 -20 3 -11 1 -18 -4 -14 -5 3 -9 12 -9 20 0 8 -4 14 -10 14 -5 0 -7
-6 -4 -13 2 -7 -3 -13 -13 -14 -10 -1 -37 -4 -60 -6 -24 -3 -46 -1 -49 4 -3 5
-9 7 -14 4 -5 -3 -18 -1 -29 4 -16 9 -20 5 -32 -37 -7 -26 -12 -53 -10 -61 2
-10 -5 -12 -24 -9 -20 4 -25 2 -20 -9 4 -11 1 -13 -11 -9 -12 5 -15 2 -10 -10
4 -11 2 -15 -8 -11 -10 4 -13 1 -9 -9 3 -9 -1 -14 -13 -14 -17 -1 -17 -2 -3
-13 12 -9 14 -15 5 -23 -9 -8 -20 -5 -42 12 -36 29 -44 30 -37 4 4 -15 0 -20
-15 -20 -16 0 -19 -5 -15 -21 4 -12 0 -25 -8 -30 -8 -5 -9 -9 -4 -9 6 0 10
-11 10 -24 0 -13 -2 -23 -5 -21 -3 1 -14 -1 -25 -6 -19 -7 -19 -8 2 -8 23 -1
36 -15 40 -44 2 -14 -2 -17 -15 -13 -13 4 -18 0 -19 -14 -2 -17 2 -20 20 -15
16 5 18 4 8 -3 -7 -5 -10 -15 -7 -21 4 -6 0 -11 -11 -11 -15 0 -16 -2 -3 -10
13 -9 13 -10 0 -10 -8 -1 -5 -5 8 -11 13 -5 20 -13 17 -19 -10 -15 6 -12 26 6
16 15 17 14 12 -5 -6 -23 15 -29 33 -11 8 8 15 6 24 -5 16 -20 41 -20 34 0 -5
11 -2 14 12 9 11 -4 25 -12 33 -18 12 -9 12 -8 1 11 -8 12 -17 20 -21 17 -4
-2 -10 0 -13 5 -12 19 16 23 29 5 8 -11 15 -14 15 -8 0 6 7 11 14 11 11 0 13
-5 5 -19 -9 -16 -7 -17 15 -6 14 6 23 15 20 19 -3 5 -1 9 5 9 6 0 15 -9 21
-20 10 -18 13 -19 25 -6 12 11 22 12 52 3 21 -6 47 -18 57 -26 14 -12 20 -13
23 -3 9 25 21 11 18 -20 -4 -24 -2 -29 7 -20 15 15 32 16 23 2 -8 -13 21 -13
45 0 19 10 19 9 -1 -25 -12 -19 -28 -35 -37 -35 -15 -1 -15 -3 2 -15 18 -13
17 -15 -18 -31 -35 -17 -37 -17 -55 3 -14 15 -16 24 -9 31 8 8 4 14 -14 21
-15 5 -29 15 -33 20 -3 6 -12 11 -18 11 -7 0 1 -11 18 -24 25 -20 27 -26 17
-39 -9 -10 -10 -17 -2 -22 12 -7 13 -25 2 -25 -5 0 -19 9 -32 20 -13 11 -28
20 -34 20 -6 0 -37 16 -69 36 -32 20 -60 34 -63 32 -2 -3 7 -11 21 -18 25 -13
33 -30 15 -30 -5 0 -10 -4 -10 -9 0 -5 9 -7 19 -4 22 5 61 -13 61 -28 0 -6 -9
-8 -21 -4 -12 4 -19 3 -16 -2 8 -13 -33 -12 -81 3 -58 19 -72 18 -67 -5 2 -13
-1 -18 -13 -15 -10 2 -25 -7 -36 -23 -11 -14 -14 -23 -8 -19 16 9 15 -7 0 -22
-17 -17 -41 -15 -35 2 4 10 1 13 -8 9 -11 -4 -12 -10 -5 -24 9 -16 7 -18 -17
-15 -16 2 -37 7 -48 11 -15 5 -16 4 -6 -3 16 -11 6 -32 -15 -32 -8 0 -12 -5
-9 -10 3 -6 -1 -10 -9 -10 -10 0 -13 -6 -10 -15 4 -8 2 -15 -4 -15 -5 0 -12
-9 -15 -20 -3 -11 -19 -25 -36 -31 -17 -6 -31 -16 -31 -21 0 -7 -4 -7 -12 0
-9 7 -17 6 -25 -3 -8 -9 -9 -16 -3 -20 6 -3 10 -1 10 5 0 6 5 8 10 5 10 -6
-12 -36 -25 -35 -15 1 -41 -37 -35 -50 9 -18 2 -40 -12 -40 -6 0 -8 7 -4 15 3
8 1 15 -4 15 -4 0 -11 -14 -15 -30 -7 -31 -20 -39 -28 -17 -2 6 -7 9 -11 6 -4
-4 0 -14 9 -23 15 -15 15 -17 -7 -25 l-23 -10 23 0 c17 -1 22 -7 22 -26 0 -14
5 -25 11 -25 6 0 9 -7 5 -15 -3 -8 0 -14 7 -12 7 1 11 -4 9 -11 -2 -10 4 -11
19 -7 19 6 21 4 17 -13 -4 -15 -2 -19 8 -15 8 3 14 0 14 -7 0 -9 4 -9 17 1 15
13 16 11 10 -13 -6 -21 -3 -28 13 -33 11 -3 20 -14 21 -23 0 -11 3 -12 6 -4 2
6 9 12 15 12 6 0 8 -7 4 -15 -3 -8 0 -15 6 -15 6 0 3 -10 -8 -21 -19 -22 -19
-22 5 -9 15 8 21 8 17 1 -4 -6 1 -14 10 -18 10 -4 19 -2 22 5 7 21 25 13 19
-8 -6 -23 11 -27 19 -5 4 9 13 14 22 13 11 -2 16 6 17 27 0 17 6 38 11 48 10
17 12 17 24 2 12 -14 12 -18 0 -25 -8 -5 -18 -6 -24 -3 -5 3 -6 1 -2 -6 4 -6
12 -9 17 -6 5 4 9 -1 9 -9 0 -28 29 -17 32 12 3 26 6 27 55 27 28 0 51 2 51 5
-1 18 4 29 16 33 11 4 13 1 10 -11 -5 -13 -2 -13 11 3 14 17 17 18 26 5 8 -11
9 -9 4 9 -5 14 -3 21 3 17 5 -3 13 4 17 17 l7 22 8 -25 c4 -14 8 -19 9 -12 1
6 8 12 16 12 8 0 15 -6 16 -12 0 -7 4 -3 9 10 5 12 17 23 27 24 10 0 23 2 28
3 58 13 76 19 86 31 16 19 29 17 29 -3 1 -17 2 -17 15 1 7 10 18 15 24 11 6
-3 11 -1 11 6 0 7 10 27 21 44 19 27 26 30 68 29 25 -1 46 -3 46 -4 0 -1 33
-3 73 -4 71 -3 72 -3 56 15 -16 18 -16 19 0 19 9 0 15 4 12 9 -4 5 -2 21 4 36
9 23 13 25 25 15 9 -7 18 -10 22 -6 3 3 1 6 -5 6 -7 0 -12 6 -12 13 0 6 16 -5
35 -27 19 -21 32 -42 29 -47 -3 -5 2 -12 11 -15 10 -4 13 -13 9 -26 -4 -13 -2
-18 5 -14 5 4 19 -2 30 -13 13 -13 21 -16 24 -8 3 9 14 7 38 -6 l34 -18 -39
36 c-26 24 -33 35 -22 35 11 0 14 5 10 12 -4 7 -3 8 5 4 6 -4 9 -12 6 -17 -4
-5 3 -9 15 -9 12 0 19 -4 16 -8 -2 -4 -1 -14 5 -22 7 -12 9 -10 9 7 0 26 16
39 24 21 4 -7 4 -3 2 10 -3 18 -1 22 11 18 8 -3 19 -6 24 -6 4 0 6 -8 2 -17
-6 -16 -4 -16 15 1 12 11 23 15 23 10 1 -5 5 5 9 21 l8 30 1 -32 c1 -23 6 -33
17 -33 10 0 14 5 10 15 -3 9 3 24 13 34 11 11 17 22 13 25 -10 11 -10 50 0 69
7 14 5 22 -8 31 -16 12 -16 13 1 20 10 3 27 4 39 0 21 -6 21 -6 1 10 -11 8
-26 16 -32 16 -7 0 -13 5 -13 11 0 5 -4 7 -10 4 -5 -3 -10 0 -11 7 0 7 -5 1
-11 -14 -5 -16 -17 -28 -26 -28 -11 0 -13 3 -6 8 8 5 4 13 -11 24 -23 17 -23
17 -20 -7 1 -14 1 -25 0 -25 -2 0 -17 14 -35 30 -18 17 -38 30 -46 30 -7 0
-18 8 -23 18 -10 16 -10 16 -11 0 0 -24 -29 -23 -50 2 -10 12 -25 18 -39 15
-14 -2 -19 0 -15 7 5 7 0 9 -14 6 -23 -7 -30 6 -9 16 6 4 2 4 -11 2 -14 -3
-30 4 -44 17 l-21 22 6 -23 c4 -18 1 -22 -18 -22 -14 0 -25 7 -28 20 -3 11 -9
20 -14 18 -4 -1 -21 5 -37 14 l-30 16 32 7 c18 3 36 14 41 24 5 9 36 34 68 56
32 21 81 58 108 81 43 35 61 43 110 49 33 4 65 11 70 15 6 4 32 14 58 23 54
18 85 14 66 -9 -10 -12 -9 -13 5 -8 11 4 16 1 16 -14 0 -14 6 -19 18 -17 9 2
17 4 17 5 0 1 29 3 65 5 85 3 83 2 75 23 -4 9 -10 24 -13 32 -5 13 -4 13 10 0
9 -8 14 -18 12 -22 -3 -4 3 -11 12 -16 15 -8 17 -35 18 -226 1 -119 -3 -216
-7 -216 -5 0 -6 -3 -4 -7 3 -5 -1 -39 -9 -78 -7 -38 -13 -101 -14 -138 0 -38
-7 -84 -16 -105 -12 -30 -14 -58 -8 -142 7 -110 22 -176 73 -325 32 -93 38
-130 21 -140 -5 -3 -23 -32 -41 -65 -47 -89 -51 -91 -186 -101 -380 -28 -654
-97 -716 -180 -17 -24 -19 -42 -18 -174 2 -168 13 -237 46 -280 12 -16 29 -55
38 -85 31 -105 107 -150 349 -206 235 -55 390 -73 693 -80 493 -13 882 38
1084 141 60 30 85 63 100 133 6 29 18 63 26 76 9 13 20 39 26 57 11 37 38 261
39 321 0 51 -37 91 -123 132 -91 43 -182 67 -377 100 -85 15 -166 28 -180 31
-15 2 -8 -4 19 -16 33 -16 41 -23 30 -30 -10 -7 -6 -8 12 -3 15 3 30 1 33 -5
5 -7 -4 -11 -24 -11 -18 0 -33 6 -36 15 -4 8 -14 15 -24 15 -25 0 -87 36 -127
74 -29 26 -46 27 -25 0 4 -5 -1 -1 -10 9 -10 11 -18 25 -18 33 0 8 -21 38 -47
67 -27 29 -57 70 -68 91 -11 22 -31 51 -44 65 -60 66 -165 242 -144 241 19 -1
65 -50 96 -103 20 -32 39 -58 43 -57 4 1 14 -18 22 -42 8 -24 23 -53 33 -66
10 -13 23 -39 29 -58 13 -37 29 -43 46 -16 18 28 6 76 -22 89 -18 8 -24 8 -25
0 0 -7 -7 1 -14 18 -8 19 -10 37 -4 53 13 33 11 39 -11 45 -14 4 -20 14 -20
35 0 17 -4 41 -9 55 -5 13 -6 30 -1 38 6 9 4 22 -6 37 -8 12 -13 26 -10 31 3
4 2 31 -3 59 -4 29 -4 52 0 52 15 0 10 38 -7 54 -8 9 -12 20 -9 26 10 16 -7
12 -27 -7 -18 -16 -18 -16 -12 1 5 12 1 22 -10 28 -14 8 -10 14 26 45 59 49
73 73 43 73 -11 0 -14 7 -9 25 7 29 1 32 -23 7 -10 -9 -17 -26 -15 -38 2 -11
-6 -32 -17 -45 -18 -20 -22 -22 -31 -9 -9 13 -16 9 -45 -23 -20 -20 -39 -37
-45 -37 -5 0 -11 -17 -13 -37 -2 -21 -4 -3 -5 39 -2 68 -5 80 -27 102 -24 24
-34 69 -17 79 4 2 1 2 -5 1 -7 -2 -13 4 -13 12 0 8 -4 12 -10 9 -5 -3 -10 0
-10 8 0 8 7 17 15 21 19 7 19 46 -1 74 -13 19 -13 22 0 22 8 0 17 6 19 13 4
10 6 10 6 0 1 -7 6 -13 12 -13 6 0 8 7 5 16 -3 8 -2 13 3 10 5 -3 11 1 14 8 3
8 1 17 -6 19 -9 3 -9 7 -1 18 6 8 14 26 18 40 3 15 15 29 27 32 19 5 19 4 6
-11 -21 -23 -31 -67 -20 -86 7 -12 17 3 42 61 19 43 36 95 39 116 5 43 15 52
39 38 14 -8 15 -11 3 -11 -12 0 -11 -3 3 -11 10 -6 24 -8 32 -5 8 3 15 -2 17
-12 3 -14 8 -13 29 10 18 19 29 24 40 17 7 -5 10 -9 5 -9 -14 0 15 -30 30 -30
8 0 14 6 14 14 0 24 53 9 56 -15 1 -5 2 -15 3 -21 0 -7 12 -13 25 -13 20 0 22
3 14 18 -5 10 -8 26 -6 35 2 10 10 -2 20 -29 l16 -47 -27 -20 c-25 -19 -25
-20 -4 -19 12 1 20 4 17 8 -5 9 9 19 35 24 18 3 19 0 12 -34 -1 -2 -9 3 -18
10 -16 13 -17 12 -5 -3 19 -23 51 -4 44 26 -4 21 -4 21 12 1 13 -16 17 -17 25
-6 10 16 35 5 25 -11 -5 -7 -2 -9 8 -5 10 3 25 -4 39 -19 18 -19 31 -24 54
-21 16 2 47 -4 69 -13 37 -17 41 -17 83 1 62 26 81 25 89 -8 6 -22 8 -24 14
-9 3 9 10 18 15 18 6 0 16 4 22 10 7 6 19 8 28 4 16 -6 39 26 27 39 -4 4 -1 6
6 4 8 -3 13 -8 12 -13 -2 -9 19 -26 32 -26 4 0 5 7 2 15 -4 8 -2 15 4 15 5 0
13 -7 16 -16 4 -9 9 -14 13 -11 3 4 0 13 -6 21 -14 16 -6 40 10 31 5 -4 9 -1
9 5 0 7 -8 9 -22 4 -13 -3 -20 -3 -16 1 10 11 -18 61 -44 79 -19 14 -19 16 -5
22 9 3 17 10 17 16 0 5 -4 7 -9 4 -5 -3 -11 0 -14 7 -4 10 2 13 21 9 20 -4 24
-2 19 12 -4 9 -1 16 5 16 7 0 3 7 -8 15 -11 8 -14 15 -6 15 6 0 12 9 12 21 0
13 4 18 13 13 7 -5 6 0 -3 11 -17 21 -17 24 2 37 9 7 7 8 -9 5 -13 -3 -23 -1
-23 4 0 5 5 9 12 9 6 0 8 3 5 7 -4 3 -1 13 6 21 7 10 8 13 1 9 -7 -4 -18 0
-25 9 -10 13 -10 17 2 26 11 7 9 9 -8 5 -14 -3 -23 0 -23 6 0 8 -4 7 -9 -2 -7
-11 -10 -10 -18 4 -9 15 -11 16 -16 1 -4 -9 -11 -16 -17 -16 -6 0 -8 5 -5 10
11 18 -5 31 -25 20 -17 -9 -20 -6 -26 25 -5 27 -11 35 -28 36 -11 0 -15 3 -8
6 6 2 9 9 6 15 -4 6 0 14 7 19 11 7 10 9 -3 9 -11 0 -15 5 -12 14 3 8 1 17 -5
20 -14 9 9 46 29 47 11 0 11 2 2 6 -7 3 -20 -1 -29 -8 -14 -12 -15 -10 -8 21
4 19 4 32 0 28 -4 -4 -14 0 -22 8 -8 8 -19 12 -24 9 -5 -4 -6 1 -3 9 3 9 2 16
-4 16 -6 0 -14 14 -17 32 l-7 32 -14 -25 c-7 -13 -13 -19 -14 -12 0 7 -6 10
-14 7 -8 -3 -14 -11 -12 -17 1 -7 1 -9 -1 -4 -3 4 -11 7 -19 7 -8 0 -14 5 -14
10 0 6 -11 10 -24 10 -14 0 -27 4 -30 9 -7 11 -46 3 -46 -9 0 -5 -9 -6 -20 -3
-25 7 -29 47 -5 49 23 2 44 17 38 27 -3 5 -2 7 4 4 16 -10 44 16 47 46 4 39
12 42 20 6 5 -27 9 -30 29 -25 13 3 27 3 30 0 3 -4 25 -8 47 -9 30 -3 40 0 37
9 -3 8 4 12 21 11 31 -2 63 -17 110 -52 24 -18 36 -22 46 -14 7 6 17 7 22 2 5
-5 30 -11 55 -13 43 -5 46 -4 41 15 -4 17 -2 19 14 12 34 -14 82 -17 101 -6
17 11 17 11 -2 10 -62 -4 -70 0 -71 36 -1 19 1 34 5 33 20 -2 31 4 31 17 0 8
6 15 14 15 7 0 19 -7 26 -15 7 -8 17 -15 22 -15 6 0 5 7 -2 15 -7 9 -10 18 -7
22 4 3 2 12 -5 20 -8 10 -8 17 0 25 9 9 12 8 13 -3 0 -7 4 -4 9 9 5 12 7 29 4
37 -5 11 -2 13 10 9 9 -3 16 -10 16 -15 0 -5 4 -9 9 -9 5 0 7 10 3 22 -4 16
-2 19 8 13 8 -5 11 -4 6 3 -3 6 -2 13 4 17 17 10 11 21 -12 22 -28 3 -55 43
-27 43 5 0 7 -5 3 -12 -5 -7 -3 -8 6 -3 9 5 5 14 -16 30 l-27 22 23 6 c23 6
23 7 5 27 -10 11 -13 20 -8 20 6 0 13 9 16 21 5 20 5 20 -15 2 -12 -10 -19
-13 -16 -8 3 6 2 19 -3 30 -7 19 -8 19 -8 -1 -1 -12 -13 -30 -28 -40 -18 -11
-24 -12 -17 -3 13 17 25 59 15 57 -19 -2 -24 3 -11 12 13 8 12 10 -2 10 -10 0
-18 7 -18 15 0 8 -5 15 -11 15 -6 0 -9 7 -5 15 3 8 1 15 -4 15 -6 0 -10 -5
-10 -11 0 -6 -7 -9 -15 -5 -8 3 -15 1 -15 -4 0 -6 -9 -10 -20 -10 -13 0 -20 7
-20 20 0 25 -15 26 -30 3 -9 -17 -11 -17 -20 -1 -8 14 -16 15 -35 8 -22 -8
-25 -7 -25 11 0 17 -4 19 -35 13 -26 -5 -35 -3 -35 7 -1 9 -4 8 -11 -4 -9 -15
-13 -16 -27 -5 -15 12 -16 11 -3 -5 16 -20 17 -19 -28 -40 -24 -12 -30 -13
-22 -3 9 11 7 15 -6 20 -11 5 -23 -1 -35 -16 -12 -16 -18 -18 -18 -8 0 13 -2
13 -9 0 -6 -8 -7 -18 -5 -22 12 -18 -32 -6 -65 19 -20 14 -30 20 -23 13 16
-18 15 -33 -2 -27 -7 3 -19 0 -25 -6 -8 -8 -11 -7 -11 4 0 12 -2 12 -9 0 -14
-22 -38 2 -53 50 -6 22 -14 39 -18 39 -4 0 -20 13 -36 30 -16 16 -35 30 -41
30 -16 0 -17 32 -2 47 7 7 5 15 -6 27 -15 15 -14 16 12 17 15 0 37 4 47 8 19
7 19 8 1 15 -17 6 -17 9 -5 17 12 9 11 10 -5 6 -38 -8 -57 33 -35 74 12 21 31
26 28 7 -2 -8 8 -13 27 -13 20 0 30 -5 30 -15 0 -8 15 -19 33 -25 20 -6 31
-14 28 -22 -3 -7 -1 -13 4 -13 6 0 10 -9 10 -20 0 -14 5 -18 17 -13 10 4 14 2
10 -4 -5 -8 1 -7 17 0 13 7 22 15 20 19 -3 5 -4 8 -2 8 2 0 21 7 43 14 47 17
65 7 66 -33 l0 -26 10 25 10 25 22 -34 c11 -19 22 -30 24 -24 6 18 86 -16 115
-49 18 -20 33 -29 46 -26 24 7 52 -8 52 -28 0 -8 5 -12 10 -9 6 3 10 2 10 -3
0 -6 7 -13 16 -16 11 -4 15 -2 11 8 -4 10 -1 13 9 9 8 -3 14 1 14 11 0 9 6 16
14 16 8 0 17 6 19 13 4 9 8 9 15 -2 7 -9 12 -10 16 -2 10 15 28 3 20 -12 -4
-7 -3 -8 2 -4 12 12 12 30 -1 39 -20 15 16 8 39 -7 21 -14 24 -14 29 0 4 8 2
15 -4 15 -6 0 -9 6 -6 14 3 8 1 17 -6 19 -9 3 -9 8 -1 16 8 9 15 6 28 -14 21
-32 33 -27 15 6 -10 20 -9 25 12 42 22 18 22 19 3 13 -14 -4 -26 -1 -34 9 -11
13 -15 13 -21 3 -6 -8 -9 -2 -9 19 0 25 -3 31 -16 26 -13 -5 -13 -7 -2 -14 10
-7 9 -9 -4 -9 -9 0 -19 -6 -22 -12 -2 -7 -4 -3 -2 9 1 12 5 26 9 29 4 4 7 11
7 16 0 12 -23 5 -37 -12 -11 -13 -12 -12 -13 7 0 12 -4 25 -10 28 -6 3 -7 -1
-4 -9 3 -9 1 -16 -5 -16 -6 0 -11 5 -11 10 0 6 -6 10 -14 10 -8 0 -13 11 -13
28 0 15 2 22 4 15 2 -7 11 -9 19 -6 17 6 19 24 2 21 -12 -3 -14 3 -17 38 0 8
-5 13 -10 9 -5 -3 -13 4 -16 16 l-7 21 -15 -22 c-12 -17 -18 -19 -29 -9 -12
10 -13 9 -8 -5 5 -12 2 -15 -11 -10 -12 5 -24 -1 -36 -17 -10 -13 -19 -18 -19
-11 0 22 -2 27 -12 40 -7 8 -7 12 2 12 7 0 0 12 -16 27 -16 15 -21 24 -12 20
15 -5 16 -4 5 13 -6 11 -17 20 -24 20 -19 0 -25 18 -12 41 7 15 8 19 0 15 -6
-4 -21 -9 -33 -11 -12 -3 -25 -10 -30 -17 -5 -9 -8 -7 -8 7 -1 19 -1 19 -14 3
-7 -10 -19 -18 -27 -18 -10 0 -10 -3 -1 -12 7 -7 12 -16 12 -20 0 -13 -17 -9
-34 8 -9 8 -16 12 -16 7 0 -4 -4 -2 -9 6 -8 12 -13 12 -36 -3 -30 -20 -55 -15
-55 11 -1 11 -6 5 -15 -14 -14 -33 -27 -45 -23 -20 2 8 -6 11 -22 8 l-25 -3
20 22 c20 22 20 22 0 19 -15 -3 -19 1 -17 16 l3 20 -17 -20 c-16 -20 -16 -20
-11 3 3 12 1 20 -4 16 -5 -3 -9 0 -9 5 0 6 5 11 10 11 6 0 10 5 10 11 0 5 -4
8 -9 5 -5 -3 -12 1 -15 9 -3 8 -9 15 -13 14 -27 -4 -33 4 -33 44 0 23 4 47 8
53 11 17 43 8 70 -21 13 -14 26 -24 29 -21 3 2 -9 18 -26 35 -31 30 -31 31
-11 43 11 7 20 21 20 30 0 10 4 18 10 18 5 0 7 7 4 15 -4 8 -1 15 5 15 6 0 11
-6 11 -12 0 -9 4 -8 10 2 8 12 10 10 10 -10 1 -22 2 -23 11 -7 10 18 12 18 30
1 11 -10 19 -12 19 -6 0 7 7 12 15 12 8 0 15 -5 15 -11 0 -5 5 -7 10 -4 6 3 8
16 5 28 -4 16 1 26 17 36 16 10 23 10 26 2 2 -6 10 -11 17 -11 8 0 21 -7 29
-16 15 -14 16 -14 16 4 0 10 8 19 18 20 40 5 76 1 88 -9 8 -7 14 -6 19 1 4 7
18 9 33 5 23 -6 24 -5 11 11 -13 15 -12 16 11 9 24 -7 24 -6 6 7 -13 10 -15
17 -8 22 7 4 16 5 21 2 5 -3 11 1 14 9 4 9 1 12 -7 9 -8 -3 -17 -1 -21 5 -3 7
0 8 9 5 10 -4 16 -1 16 7 0 9 3 10 8 4 4 -5 16 -12 27 -13 11 -2 23 -9 27 -15
5 -8 8 -7 8 3 0 13 1 13 10 0 5 -8 10 -11 10 -6 0 5 8 2 18 -6 20 -17 29 -17
59 0 14 8 24 9 28 2 4 -6 11 -8 16 -5 5 4 1 18 -8 33 -16 27 -16 27 10 -2 15
-16 27 -25 27 -20 0 6 -6 16 -12 22 -10 10 -10 15 2 22 12 8 10 10 -10 11 -24
1 -24 1 5 14 17 7 35 11 40 8 6 -3 0 4 -13 14 -18 15 -20 21 -10 31 6 6 8 12
2 12 -5 0 -15 -5 -22 -12 -9 -9 -12 -7 -12 10 0 15 -5 20 -15 16 -8 -4 -15 -1
-15 5 0 6 -5 11 -10 11 -12 0 -56 44 -64 63 -3 8 -8 7 -15 -3 -6 -8 -11 -10
-11 -5 0 6 -8 11 -19 11 -10 0 -17 -5 -14 -12 2 -6 -2 -14 -10 -17 -11 -4 -13
0 -10 14 3 11 2 19 -3 18 -27 -5 -43 2 -37 16 3 9 -2 24 -11 34 -9 10 -13 22
-9 26 5 5 0 3 -9 -4 -15 -11 -18 -11 -18 1 0 8 6 20 13 27 10 10 8 11 -7 5
-13 -5 -17 -4 -12 4 4 7 1 12 -10 12 -16 0 -15 2 2 23 10 12 15 19 10 15 -5
-4 -17 4 -28 17 -11 14 -25 25 -31 25 -7 0 -6 -5 3 -11 12 -9 12 -10 -3 -5
-10 3 -21 6 -23 6 -3 0 -2 5 2 11 4 8 -1 9 -16 4 -14 -4 -20 -3 -16 3 9 15
-32 22 -45 6 -14 -17 -39 3 -32 26 4 11 3 12 -4 2 -5 -7 -17 -10 -25 -7 -9 4
-19 1 -23 -5 -5 -8 -13 -7 -29 4 -22 14 -23 13 -20 -10 1 -13 -3 -27 -8 -31
-7 -4 -8 -1 -3 7 6 10 4 12 -8 7 -9 -3 -18 -1 -20 6 -4 11 -9 3 -21 -37 -6
-17 -66 -49 -66 -34 0 7 -5 6 -14 -1 -11 -10 -17 -8 -25 6 -10 17 -10 17 -12
-2 -1 -11 -1 -24 0 -28 1 -5 -3 -6 -9 -2 -5 3 -10 23 -10 44 0 56 -33 82 -49
39 -7 -18 -9 -10 -9 32 0 62 33 179 52 186 8 3 17 19 20 36 5 27 8 29 22 17
14 -11 18 -11 29 4 9 12 15 14 20 7 4 -6 15 -8 26 -5 12 4 19 2 19 -8 0 -7 6
-14 14 -14 8 0 15 3 14 6 -2 24 7 28 62 25 44 -1 60 2 60 11 0 9 8 11 23 8 18
-5 20 -3 10 8 -17 17 -16 29 1 29 7 0 16 -10 19 -21 4 -15 11 -20 21 -16 9 4
16 2 16 -3 0 -6 3 -9 8 -9 21 4 32 -2 26 -13 -5 -7 -2 -9 9 -5 11 4 19 -2 26
-21 5 -15 10 -21 10 -14 1 6 8 12 17 12 9 0 12 -5 8 -12 -4 -7 -3 -8 5 -4 14
9 59 -25 53 -42 -2 -7 5 -12 16 -12 23 0 35 -22 37 -69 1 -19 7 -37 13 -39 7
-2 12 -15 12 -28 0 -16 4 -23 11 -18 6 3 8 15 6 26 -4 14 -2 18 9 14 12 -5 14
-1 8 16 -6 20 -5 21 9 10 10 -9 16 -9 19 -2 4 13 68 -7 68 -22 0 -5 -4 -6 -10
-3 -5 3 -10 2 -10 -4 0 -24 21 -20 33 6 11 26 37 43 37 25 0 -4 11 -7 24 -7
16 0 21 4 15 11 -5 6 -6 14 -2 17 3 4 -1 7 -10 7 -9 0 -17 5 -17 11 0 7 10 9
27 4 27 -6 27 -6 10 13 -14 15 -15 21 -5 24 10 4 9 9 -4 22 -15 14 -21 15 -40
5 -21 -11 -22 -11 -9 4 11 14 11 21 -3 42 -9 14 -14 31 -10 37 5 7 3 8 -6 3
-10 -6 -12 -3 -8 13 4 12 2 22 -4 22 -5 0 -6 5 -3 10 3 6 -1 10 -9 10 -9 0
-13 6 -10 14 3 7 -2 21 -11 30 -9 9 -13 21 -9 27 4 8 3 9 -4 5 -17 -10 -15 3
3 20 20 20 19 34 -1 34 -10 0 -14 6 -10 15 3 9 0 15 -8 15 -8 0 -17 -7 -20
-16 -4 -9 -9 -14 -12 -11 -10 9 -14 87 -5 87 19 0 20 32 1 53 -11 12 -18 27
-15 34 3 8 -6 18 -21 23 -18 7 -24 15 -20 26 3 9 2 12 -5 9 -6 -4 -13 2 -16
13 -3 13 -11 18 -19 15 -10 -4 -12 0 -8 11 3 9 10 16 15 16 5 0 7 15 5 33 -2
22 -8 31 -19 29 -10 -1 -17 9 -21 33 -4 19 -11 35 -16 35 -5 0 -7 9 -5 20 2
11 0 18 -4 15 -12 -7 -34 22 -27 34 11 17 -13 64 -29 57 -9 -3 -15 0 -15 10 0
8 -13 20 -29 25 -16 6 -32 17 -35 25 -3 8 -2 13 3 10 5 -3 11 0 14 8 3 8 -1
17 -9 20 -8 3 -14 2 -14 -2 0 -4 -12 -9 -26 -10 -33 -2 -46 -11 -38 -23 6 -11
-13 -39 -28 -39 -5 0 -6 6 -2 13 6 10 4 10 -7 0 -21 -20 -32 -15 -27 12 3 13
1 23 -5 22 -9 -2 -14 18 -19 78 -2 17 -10 35 -18 42 -13 11 -13 12 3 13 21 0
22 19 1 27 -13 5 -13 7 -2 14 9 6 4 9 -15 9 -15 0 -30 6 -33 14 -4 9 -15 12
-35 9 -16 -2 -29 0 -29 6 0 6 -7 8 -16 4 -10 -4 -22 1 -30 11 -12 18 -44 19
-56 2 -4 -6 -14 -4 -24 5 -16 13 -17 12 -11 -4z m-643 -277 c0 -5 -2 -10 -4
-10 -3 0 -8 5 -11 10 -3 6 -1 10 4 10 6 0 11 -4 11 -10z m450 -270 c-20 -13
-43 -13 -35 0 3 6 16 10 28 10 18 0 19 -2 7 -10z m-669 -23 c-10 -9 -11 -8 -5
6 3 10 9 15 12 12 3 -3 0 -11 -7 -18z m49 -48 c0 -6 -4 -7 -10 -4 -5 3 -10 11
-10 16 0 6 5 7 10 4 6 -3 10 -11 10 -16z m976 -1 c4 -7 3 -8 -4 -4 -7 4 -12 2
-12 -5 0 -7 -3 -10 -6 -6 -6 5 3 27 11 27 2 0 7 -5 11 -12z m-966 -38 c0 -5
-2 -10 -4 -10 -3 0 -8 5 -11 10 -3 6 -1 10 4 10 6 0 11 -4 11 -10z m45 0 c3
-6 -1 -7 -9 -4 -18 7 -21 14 -7 14 6 0 13 -4 16 -10z m480 -10 c-7 -12 -45
-14 -45 -2 0 4 11 9 26 10 14 1 23 -2 19 -8z m-124 -34 c5 3 9 0 9 -6 0 -7 -6
-10 -13 -7 -18 7 -41 -8 -33 -21 4 -7 26 -9 53 -6 31 3 49 0 55 -8 6 -10 8
-10 8 2 0 13 1 13 10 0 14 -22 12 -29 -9 -23 -10 3 -22 -1 -26 -8 -5 -8 -4
-10 3 -5 8 5 10 2 6 -8 -8 -20 -13 -20 -37 2 -15 13 -21 14 -24 4 -4 -10 -9
-8 -19 5 -13 17 -14 17 -8 1 7 -21 1 -22 -27 -7 -11 5 -17 14 -14 20 4 5 3 9
-2 9 -4 0 -14 4 -22 9 -12 8 -13 12 -2 25 11 13 16 14 29 4 13 -11 14 -11 7 1
-5 9 -4 12 2 8 6 -4 17 0 24 9 8 10 15 12 17 5 2 -6 8 -9 13 -5z m592 -23 c-7
-2 -9 -11 -6 -19 4 -10 -3 -14 -22 -14 -21 0 -26 4 -21 16 5 14 4 15 -7 5 -11
-9 -17 -8 -27 4 -11 13 -10 14 4 9 11 -4 16 -2 14 6 -5 20 44 30 62 12 11 -10
12 -16 3 -19z m-306 -12 c0 -11 -5 -17 -9 -15 -5 3 -5 10 -2 16 5 7 1 9 -9 5
-10 -3 -17 -2 -17 3 0 6 9 10 19 10 13 0 19 -6 18 -19z m31 -6 c-3 -3 -9 2
-12 12 -6 14 -5 15 5 6 7 -7 10 -15 7 -18z m44 -87 c-6 -6 -16 -7 -22 -3 -9 6
-9 9 1 16 17 10 34 0 21 -13z m-81 -11 c-10 -9 -11 -8 -5 6 3 10 9 15 12 12 3
-3 0 -11 -7 -18z m-101 -6 c0 -5 -7 -12 -16 -15 -14 -5 -15 -4 -4 9 14 17 20
19 20 6z m-30 -45 c0 -5 -7 -3 -15 4 -8 7 -12 17 -9 22 7 10 24 -9 24 -26z
m-130 20 c0 -3 -4 -8 -10 -11 -5 -3 -10 -1 -10 4 0 6 5 11 10 11 6 0 10 -2 10
-4z m337 -2 c-3 -3 -12 -4 -19 -1 -8 3 -5 6 6 6 11 1 17 -2 13 -5z m-217 -39
c6 -8 10 -20 8 -26 -2 -6 -12 0 -21 15 -18 27 -8 37 13 11z m-84 -15 c0 -23
-11 -27 -19 -6 -3 8 -1 17 6 20 7 2 12 5 12 5 1 1 1 -8 1 -19z m271 5 c2 -6
-8 -11 -22 -11 -25 0 -31 7 -18 20 10 9 36 3 40 -9z m-387 -19 c0 -2 -11 -6
-25 -8 -14 -3 -25 -1 -25 3 0 5 11 9 25 9 14 0 25 -2 25 -4z m655 -6 c3 -5 2
-10 -4 -10 -5 0 -13 5 -16 10 -3 6 -2 10 4 10 5 0 13 -4 16 -10z m-805 -10 c0
-5 -4 -10 -9 -10 -6 0 -13 5 -16 10 -3 6 1 10 9 10 9 0 16 -4 16 -10z m223 -4
c6 -15 -16 -40 -25 -30 -8 7 2 44 12 44 4 0 10 -6 13 -14z m202 4 c3 -5 1 -10
-4 -10 -6 0 -11 5 -11 10 0 6 2 10 4 10 3 0 8 -4 11 -10z m118 4 c15 -5 14
-29 -3 -69 -5 -11 -16 -44 -25 -72 -9 -29 -21 -55 -26 -58 -5 -4 -9 -17 -9
-29 0 -16 -7 -26 -21 -29 -22 -6 -54 15 -42 27 4 3 2 6 -3 6 -6 0 -15 -5 -22
-12 -9 -9 -12 -9 -12 0 0 7 5 12 10 12 6 0 10 10 10 23 -1 20 -2 20 -11 5 -12
-22 -33 -24 -25 -3 3 8 0 15 -7 15 -7 1 -6 5 4 13 13 10 14 15 3 24 -10 10
-14 10 -18 0 -3 -9 -7 -8 -15 3 -8 12 -11 12 -11 1 0 -8 -6 -11 -17 -7 -15 5
-14 3 2 -10 19 -15 19 -15 -10 -9 -23 5 -26 4 -15 -4 13 -9 11 -11 -7 -11 -12
0 -28 -3 -36 -6 -8 -3 -22 2 -31 12 -21 21 -12 32 10 13 16 -13 16 -12 4 11
-7 13 -20 31 -28 39 -12 13 -12 16 2 26 9 7 13 15 9 18 -3 4 1 7 11 7 9 0 14
-4 11 -10 -3 -5 -1 -10 4 -10 6 0 11 4 11 10 0 5 10 14 22 21 17 9 20 9 16 -2
-4 -10 5 -14 33 -16 26 -1 36 2 33 11 -2 6 4 12 16 13 13 1 20 -4 20 -15 0
-15 -2 -15 -10 -2 -11 17 -13 10 -4 -14 5 -14 8 -14 27 -1 28 19 39 19 35 -1
-2 -10 3 -19 11 -22 8 -3 11 0 7 7 -4 6 -3 11 3 11 5 0 11 -6 14 -12 2 -7 8
-1 12 15 5 21 10 25 20 17 10 -8 12 -3 11 22 -4 48 3 55 37 42z m-567 -30 c-3
-7 0 -15 7 -18 9 -3 8 -5 -1 -5 -7 -1 -16 7 -19 17 -6 14 -8 13 -14 -8 -7 -23
-7 -23 -8 7 -1 27 2 30 20 26 11 -3 18 -11 15 -19z m904 -13 c0 -5 -7 -12 -16
-15 -14 -5 -15 -4 -4 9 14 17 20 19 20 6z m550 -101 c0 -5 -7 -7 -15 -4 -8 4
-12 10 -9 15 6 11 24 2 24 -11z m-1287 -34 c-3 -4 -9 -2 -14 5 -13 22 -11 31
5 17 8 -7 12 -17 9 -22z m-35 -1 c-3 -3 -9 2 -12 12 -6 14 -5 15 5 6 7 -7 10
-15 7 -18z m-198 -155 c0 -5 -5 -10 -11 -10 -5 0 -7 5 -4 10 3 6 8 10 11 10 2
0 4 -4 4 -10z m1040 -54 c0 -3 -4 -8 -10 -11 -5 -3 -10 -1 -10 4 0 6 5 11 10
11 6 0 10 -2 10 -4z m-650 -96 c-6 -3 -8 -14 -4 -23 3 -10 1 -17 -5 -17 -6 0
-10 -4 -8 -9 1 -5 -2 -9 -8 -9 -5 -1 -9 7 -7 16 8 53 13 61 28 55 10 -4 12 -8
4 -13z m40 -44 c0 -2 -3 -11 -6 -20 -9 -24 -33 -20 -27 4 4 16 33 30 33 16z
m40 -25 c0 -10 -7 -18 -15 -18 -15 0 -21 28 -9 40 10 10 24 -2 24 -22z m-224
-68 c0 -13 -3 -23 -7 -23 -4 0 -7 8 -7 18 0 9 -3 26 -8 37 -7 17 -6 18 7 5 8
-7 15 -24 15 -37z m-30 3 c5 -28 -10 -36 -20 -11 -5 15 3 49 11 42 2 -3 6 -16
9 -31z m611 -38 c31 -11 41 -33 16 -33 -6 0 -14 -3 -18 -7 -4 -4 10 -5 30 -3
24 2 34 0 28 -6 -10 -10 -24 -11 -70 -7 -25 2 -30 13 -10 21 7 3 5 6 -5 6 -11
1 -18 9 -18 21 0 23 3 24 47 8z m-422 -28 c3 -6 -1 -7 -9 -4 -18 7 -21 14 -7
14 6 0 13 -4 16 -10z m109 -55 c-7 -16 -24 -21 -24 -6 0 8 7 13 27 20 1 1 0
-6 -3 -14z m336 -4 c0 -16 -14 -21 -27 -10 -10 9 -13 8 -13 -1 0 -8 -3 -11 -6
-7 -3 3 -4 9 -1 14 7 11 47 14 47 4z m-580 -5 c0 -3 -4 -8 -10 -11 -5 -3 -10
-1 -10 4 0 6 5 11 10 11 6 0 10 -2 10 -4z m710 -10 c0 -11 -19 -15 -25 -6 -3
5 1 10 9 10 9 0 16 -2 16 -4z m-11 -43 c12 10 14 9 8 -5 -4 -12 -2 -15 9 -11
21 8 17 -15 -7 -40 -12 -12 -19 -16 -15 -9 5 7 1 12 -11 12 -13 0 -18 8 -19
31 -1 21 2 27 9 20 7 -7 15 -7 26 2z m-691 -22 c11 -7 11 -9 -1 -14 -9 -3 -21
1 -27 9 -10 11 -10 14 1 14 8 0 20 -4 27 -9z m-738 -35 c0 -2 -7 -7 -16 -10
-8 -3 -12 -2 -9 4 6 10 25 14 25 6z m1410 -36 c0 -5 -2 -10 -4 -10 -3 0 -8 5
-11 10 -3 6 -1 10 4 10 6 0 11 -4 11 -10z m-805 -250 c-8 -13 11 -13 36 0 14
8 27 7 48 -5 42 -21 45 -30 15 -62 -18 -20 -24 -23 -20 -9 5 15 2 17 -17 12
-21 -5 -24 -2 -22 18 2 18 -1 23 -11 19 -8 -3 -14 -10 -14 -15 0 -6 -6 -5 -15
2 -10 9 -15 9 -15 1 0 -6 -7 -11 -15 -11 -8 0 -15 6 -15 13 0 8 -4 7 -10 -3
-7 -10 -10 -11 -10 -2 0 7 6 15 14 18 8 3 12 12 9 20 -4 10 3 14 22 14 15 0
24 -4 20 -10z m245 -49 c-1 -10 -26 -41 -34 -41 -4 0 -4 9 -1 20 4 11 2 20 -4
20 -6 0 -11 4 -11 9 0 4 11 6 25 3 14 -2 25 -7 25 -11z m311 -42 c-6 -24 -9
-28 -10 -12 -1 24 9 56 16 50 2 -3 0 -20 -6 -38z m-380 -22 c-10 -9 -11 -8 -5
6 3 10 9 15 12 12 3 -3 0 -11 -7 -18z m499 19 c0 -3 -4 -8 -10 -11 -5 -3 -10
-1 -10 4 0 6 5 11 10 11 6 0 10 -2 10 -4z m-755 -16 c-3 -5 -14 -10 -23 -9
-14 0 -13 2 3 9 27 11 27 11 20 0z m662 -22 c-3 -7 -5 -2 -5 12 0 14 2 19 5
13 2 -7 2 -19 0 -25z m-324 -8 c3 -11 3 -20 1 -20 -2 0 -8 9 -14 20 -6 11 -7
20 -2 20 6 0 12 -9 15 -20z m-12 -31 c9 -18 9 -19 -10 -7 -12 7 -21 19 -21 26
0 17 17 7 31 -19z m819 11 c0 -5 -2 -10 -4 -10 -3 0 -8 5 -11 10 -3 6 -1 10 4
10 6 0 11 -4 11 -10z m147 -12 c-3 -8 -6 -5 -6 6 -1 11 2 17 5 13 3 -3 4 -12
1 -19z m-864 -13 c-3 -9 -8 -14 -10 -11 -3 3 -2 9 2 15 9 16 15 13 8 -4z m317
-10 c14 -16 10 -18 -14 -9 -9 3 -16 10 -16 15 0 14 16 11 30 -6z m-707 -12
c-22 -17 -40 -16 -46 0 -4 10 5 13 29 13 30 -1 33 -2 17 -13z m1112 -33 c-3
-5 -11 -10 -16 -10 -6 0 -7 5 -4 10 3 6 11 10 16 10 6 0 7 -4 4 -10z m-857
-25 c-3 -3 -9 2 -12 12 -6 14 -5 15 5 6 7 -7 10 -15 7 -18z m822 -45 c0 -5 -4
-10 -10 -10 -5 0 -10 5 -10 10 0 6 5 10 10 10 6 0 10 -4 10 -10z m-40 -30 c0
-19 -11 -26 -23 -14 -8 8 3 34 14 34 5 0 9 -9 9 -20z m-403 -36 c-3 -3 -12 -4
-19 -1 -8 3 -5 6 6 6 11 1 17 -2 13 -5z m-457 -76 c-1 -18 -25 -48 -38 -48 -6
0 -13 6 -16 13 -5 10 -7 10 -12 0 -3 -7 -13 -13 -21 -13 -9 0 0 12 22 30 40
32 65 38 65 18z m-10 -113 c0 -8 -4 -15 -9 -15 -13 0 -22 16 -14 24 11 11 23
6 23 -9z m437 -85 c24 -46 23 -61 -1 -41 -12 10 -16 8 -22 -11 -4 -13 -7 -26
-6 -30 3 -11 -6 -10 -29 2 -11 6 -19 7 -19 1 0 -5 8 -12 18 -16 16 -7 16 -8 0
-14 -15 -5 -15 -8 -2 -25 14 -20 14 -20 14 0 1 18 1 18 11 0 9 -14 8 -20 -2
-27 -11 -7 -11 -9 -1 -9 7 0 11 -4 7 -9 -3 -6 6 -8 20 -5 14 2 25 0 25 -6 0
-6 4 -9 9 -6 5 3 15 -1 22 -10 10 -13 10 -17 -1 -24 -15 -9 -6 -40 12 -40 9 0
9 3 -2 10 -8 5 -11 12 -8 15 12 12 29 -6 23 -25 -3 -10 -1 -21 5 -25 12 -8 13
-45 1 -45 -5 0 -7 10 -4 23 5 18 3 20 -8 10 -20 -20 -31 -15 -24 8 5 15 4 19
-4 15 -6 -4 -11 -1 -11 7 0 19 -38 29 -61 16 -11 -6 -20 -5 -24 1 -3 5 -19 10
-36 10 -16 0 -29 3 -29 8 0 4 9 57 21 117 21 109 51 179 73 172 6 -1 21 -23
33 -47z m713 -18 c0 -14 -11 -21 -26 -15 -21 8 -17 23 6 23 11 0 20 -4 20 -8z
m21 -35 c-8 -8 -11 -7 -11 4 0 20 13 34 18 19 3 -7 -1 -17 -7 -23z m-1222 1
c-10 -7 -4 -8 19 -4 27 5 32 2 32 -14 0 -10 -5 -22 -11 -26 -16 -9 -59 17 -59
36 0 21 10 31 22 23 6 -3 5 -9 -3 -15z m156 2 c3 -6 -1 -7 -9 -4 -18 7 -21 14
-7 14 6 0 13 -4 16 -10z m-315 -51 c0 -18 -2 -20 -15 -9 -13 11 -13 15 -3 21
18 12 18 12 18 -12z m1445 3 c-3 -3 -11 0 -18 7 -9 10 -8 11 6 5 10 -3 15 -9
12 -12z m-1280 -20 c5 -26 -11 -38 -29 -22 -11 8 -15 8 -19 -2 -4 -8 -6 -7 -6
5 -1 19 19 23 36 6 7 -7 9 -2 5 18 -2 15 -2 25 2 22 4 -4 8 -16 11 -27z m-131
2 c3 -8 2 -12 -4 -9 -6 3 -10 10 -10 16 0 14 7 11 14 -7z m-758 -47 c15 -14
23 -30 20 -36 -8 -13 -66 -11 -66 2 0 4 -5 5 -10 2 -6 -4 -8 -11 -5 -16 4 -5
2 -9 -2 -9 -12 0 -30 51 -25 72 5 24 55 15 88 -15z m49 -15 c-7 -8 -35 7 -35
18 0 6 7 6 20 -2 10 -7 17 -14 15 -16z m1400 18 c3 -5 1 -10 -4 -10 -6 0 -11
5 -11 10 0 6 2 10 4 10 3 0 8 -4 11 -10z m442 -84 c-10 -8 -15 -20 -11 -30 3
-9 1 -16 -6 -16 -6 0 -8 5 -5 10 3 6 1 10 -6 10 -7 0 -5 8 6 20 10 11 23 20
29 20 6 0 3 -7 -7 -14z m268 -26 c-5 -15 -10 -19 -17 -12 -7 7 -6 15 3 25 18
19 23 14 14 -13z m-918 -22 c-3 -7 -5 -2 -5 12 0 14 2 19 5 13 2 -7 2 -19 0
-25z m613 12 c0 -5 -7 -10 -15 -10 -8 0 -15 5 -15 10 0 6 7 10 15 10 8 0 15
-4 15 -10z m-749 -47 c-12 -20 -14 -14 -5 12 4 9 9 14 11 11 3 -2 0 -13 -6
-23z m270 18 c4 7 11 10 16 6 10 -11 -17 -26 -34 -20 -8 3 -13 1 -11 -5 2 -5
0 -10 -4 -11 -22 -3 -28 0 -28 14 0 8 6 12 14 9 8 -3 18 0 22 7 6 10 9 10 12
0 4 -11 6 -11 13 0z m-150 -82 l-11 -34 5 34 c3 18 6 45 6 60 l2 26 4 -26 c2
-15 -1 -42 -6 -60z m662 62 c14 -6 28 -19 31 -29 8 -25 42 -34 57 -16 8 10 16
11 22 5 5 -5 16 -7 23 -4 8 3 14 0 14 -7 0 -7 8 -19 18 -26 15 -12 13 -13 -18
-7 -52 10 -81 8 -118 -8 -31 -13 -37 -12 -98 20 -36 18 -63 39 -61 45 6 17 42
19 57 1 19 -23 31 -18 20 10 -8 21 -7 25 10 25 10 0 30 -4 43 -9z m-584 -14
c6 -8 7 -18 3 -22 -4 -5 0 -4 8 0 25 15 72 16 67 3 -2 -7 -9 -12 -15 -11 -5 1
-16 -4 -22 -12 -15 -18 -20 -18 -55 -5 -22 8 -25 13 -15 25 6 8 9 19 5 25 -9
15 11 12 24 -3z m786 -27 c3 -5 1 -10 -4 -10 -6 0 -11 5 -11 10 0 6 2 10 4 10
3 0 8 -4 11 -10z m-701 -21 c-3 -6 -12 -8 -20 -5 -8 3 -14 0 -14 -6 0 -6 -3
-9 -6 -5 -10 10 3 23 25 24 12 1 19 -3 15 -8z m-317 -51 c-3 -8 -6 -5 -6 6 -1
11 2 17 5 13 3 -3 4 -12 1 -19z m140 -25 c-3 -10 -5 -4 -5 12 0 17 2 24 5 18
2 -7 2 -21 0 -30z m233 21 c0 -2 -7 -4 -15 -4 -8 0 -15 4 -15 10 0 5 7 7 15 4
8 -4 15 -8 15 -10z m-165 -4 c3 -5 35 -26 70 -46 66 -36 82 -50 70 -62 -3 -3
-10 0 -15 8 -8 12 -10 9 -10 -10 l0 -24 -16 22 c-17 25 -34 29 -34 7 0 -20
-17 -19 -30 3 -8 14 -9 12 -6 -10 5 -32 -9 -38 -19 -9 -3 11 -12 22 -20 25 -8
3 -15 15 -15 27 0 13 -7 30 -16 40 -9 10 -13 23 -9 28 8 14 42 14 50 1z m725
0 c0 -5 -9 -10 -19 -10 -11 0 -23 5 -26 10 -4 6 5 10 19 10 14 0 26 -4 26 -10z
m-609 -11 c28 -14 59 -47 59 -60 0 -6 -16 3 -35 20 -20 17 -43 31 -51 31 -8 0
-12 5 -9 10 8 13 12 13 36 -1z m-342 -59 c-5 -30 -15 -77 -23 -105 -9 -27 -23
-84 -33 -125 -16 -66 -18 -71 -22 -40 -3 30 -5 32 -12 15 -8 -17 -9 -17 -5 5
5 31 11 56 25 106 6 22 11 58 11 81 0 48 17 93 36 93 6 0 15 7 18 16 12 31 14
10 5 -46z m158 -42 c22 -28 24 -146 2 -132 -5 3 -9 -9 -9 -26 0 -22 -6 -33
-22 -40 -18 -7 -19 -9 -5 -9 9 -1 17 -5 17 -10 0 -5 3 -18 6 -28 4 -13 3 -14
-4 -5 -7 11 -17 6 -45 -23 l-35 -36 -7 30 c-3 17 -1 39 5 51 6 12 9 27 7 35
-3 7 1 24 8 38 7 14 11 28 8 31 -3 3 -1 11 4 18 6 7 14 27 18 43 5 17 9 33 10
38 2 4 3 14 4 22 1 18 25 20 38 3z m378 2 c3 -5 -1 -10 -9 -10 -9 0 -16 5 -16
10 0 6 4 10 9 10 6 0 13 -4 16 -10z m-215 -10 c0 -5 -4 -10 -10 -10 -5 0 -10
5 -10 10 0 6 5 10 10 10 6 0 10 -4 10 -10z m-127 -40 c3 -11 1 -20 -4 -20 -5
0 -9 9 -9 20 0 11 2 20 4 20 2 0 6 -9 9 -20z m-1183 1 c0 -6 -4 -13 -10 -16
-5 -3 -10 1 -10 9 0 9 5 16 10 16 6 0 10 -4 10 -9z m86 -10 c-5 -8 -56 -3 -56
5 0 2 14 4 31 4 16 0 28 -4 25 -9z m-44 -19 c-7 -2 -9 -9 -5 -15 4 -7 -1 -6
-10 2 -24 19 -21 30 5 23 12 -3 17 -7 10 -10z m1638 -11 c0 -5 -7 -11 -15 -15
-9 -3 -15 0 -15 9 0 8 7 15 15 15 8 0 15 -4 15 -9z m-420 -36 c14 -16 10 -18
-14 -9 -9 3 -16 10 -16 15 0 14 16 11 30 -6z m-36 -32 c-5 -5 -12 -12 -16 -18
-4 -6 -8 -2 -8 8 0 9 7 17 17 17 9 0 12 -3 7 -7z m466 -7 c0 -3 -4 -8 -10 -11
-5 -3 -10 -1 -10 4 0 6 5 11 10 11 6 0 10 -2 10 -4z m-789 -164 c-16 -73 -21
-117 -26 -252 -6 -121 -9 -140 -21 -127 -7 7 -6 103 1 137 14 60 22 205 12
212 -7 4 -6 24 3 62 12 53 14 55 27 36 12 -17 13 -30 4 -68z m326 62 c-3 -3
-12 -4 -19 -1 -8 3 -5 6 6 6 11 1 17 -2 13 -5z m-125 -44 c-18 -16 -39 -30
-45 -29 -9 0 -8 2 1 6 6 2 12 10 12 17 0 18 22 36 44 36 18 0 16 -4 -12 -30z
m272 4 c3 -9 2 -12 -5 -9 -5 4 -16 1 -24 -5 -10 -8 -15 -9 -15 -2 0 8 24 29
36 32 1 0 5 -7 8 -16z m-525 -131 c-7 -32 -16 -65 -21 -73 -7 -11 -8 -10 -4 5
3 11 8 38 11 60 9 55 16 77 22 72 3 -3 -1 -32 -8 -64z m529 32 c-3 -3 -9 2
-12 12 -6 14 -5 15 5 6 7 -7 10 -15 7 -18z m32 15 c0 -5 -4 -10 -10 -10 -5 0
-10 5 -10 10 0 6 5 10 10 10 6 0 10 -4 10 -10z m30 -15 c-8 -10 -9 -15 -2 -15
6 0 9 -7 6 -15 -9 -21 -27 -19 -20 3 5 14 4 14 -9 -2 -11 -14 -15 -16 -15 -5
0 12 -2 12 -10 -1 -8 -13 -10 -13 -10 2 0 21 17 32 23 16 4 -8 8 -4 12 10 4
12 14 22 22 22 13 0 13 -3 3 -15z m90 1 c0 -2 -7 -6 -15 -10 -8 -3 -15 -1 -15
4 0 6 7 10 15 10 8 0 15 -2 15 -4z m-1844 -33 c-2 -12 -14 -18 -42 -19 -33 -2
-35 -1 -16 7 13 5 27 7 32 4 4 -3 10 2 14 10 7 20 15 19 12 -2z m864 7 c0 -5
-4 -10 -10 -10 -5 0 -10 5 -10 10 0 6 5 10 10 10 6 0 10 -4 10 -10z m970 -23
c0 -15 -30 -19 -44 -4 -13 12 -11 14 15 13 16 -1 29 -5 29 -9z m-1716 -15 c3
-4 -9 -22 -25 -40 -29 -31 -103 -62 -116 -48 -4 4 1 23 12 43 16 29 27 36 53
38 18 2 36 6 39 9 9 9 31 7 37 -2z m1582 -17 c4 -8 10 -15 16 -15 5 0 6 5 3
11 -4 6 2 5 13 -2 12 -7 19 -16 16 -20 -7 -12 -74 13 -74 28 0 18 19 17 26 -2z
m240 6 c-3 -5 1 -12 10 -15 9 -4 13 -2 8 5 -3 6 6 3 20 -6 15 -10 26 -25 24
-33 -4 -21 -36 -24 -34 -4 0 9 -5 17 -11 18 -7 1 -17 2 -22 3 -5 0 -8 9 -6 19
5 23 4 22 11 22 3 0 3 -4 0 -9z m-120 -26 c23 -15 35 -33 13 -19 -7 4 -9 0 -5
-12 8 -26 -7 -47 -30 -42 -17 4 -17 6 4 15 21 8 22 11 9 22 -13 10 -17 9 -26
-8 -13 -24 -41 -17 -41 10 0 12 7 19 20 19 25 0 25 9 3 26 -16 12 -16 13 6 9
13 -2 34 -11 47 -20z m243 -51 c-9 -11 -15 -11 -25 -3 -19 15 -18 17 11 17 21
0 23 -3 14 -14z m26 -24 c-19 -21 -62 -21 -70 -1 -9 22 3 26 24 7 19 -17 20
-17 31 3 6 12 16 19 21 15 6 -4 4 -13 -6 -24z m-941 -58 c3 -6 2 -13 -4 -17
-5 -3 -10 -21 -11 -38 l-1 -32 -9 30 c-5 17 -6 53 -2 80 6 47 7 48 13 19 4
-17 10 -36 14 -42z m-1074 48 c0 -5 -9 -14 -20 -20 -22 -12 -23 -10 -14 14 7
17 34 22 34 6z m-86 -24 c-10 -8 -21 -12 -24 -9 -3 2 4 11 14 19 11 7 22 12
25 9 2 -3 -4 -12 -15 -19z m1683 4 c1 -11 -3 -22 -8 -26 -6 -4 -6 -10 1 -19 8
-9 5 -14 -10 -18 -11 -3 -23 -1 -26 4 -3 5 0 9 7 9 8 0 7 5 -2 17 -12 15 -12
16 3 10 10 -3 20 -2 23 4 4 5 -1 12 -10 15 -13 6 -14 8 -3 15 19 13 24 11 25
-11z m-1997 -21 c0 -12 -43 -5 -47 8 -2 6 7 8 22 6 14 -3 25 -9 25 -14z m27
-43 c6 -6 -9 -36 -18 -36 -4 0 -5 7 -2 17 5 12 3 14 -7 8 -9 -5 -11 -4 -6 3 4
7 1 12 -8 12 -10 0 -13 -6 -9 -17 4 -11 3 -14 -5 -9 -7 4 -12 2 -12 -4 0 -6
-5 -8 -10 -5 -7 4 -6 13 1 27 9 16 17 19 42 14 17 -3 32 -8 34 -10z m-162 -6
c-3 -5 -11 -10 -16 -10 -6 0 -7 5 -4 10 3 6 11 10 16 10 6 0 7 -4 4 -10z m385
6 c0 -3 -4 -8 -10 -11 -5 -3 -10 -1 -10 4 0 6 5 11 10 11 6 0 10 -2 10 -4z
m1965 -46 c3 -5 1 -10 -4 -10 -6 0 -11 5 -11 10 0 6 2 10 4 10 3 0 8 -4 11
-10z m89 -19 c7 -11 -22 -23 -35 -15 -5 3 -7 10 -4 15 8 12 32 12 39 0z m-884
-63 c0 -12 -6 -9 -26 13 -19 22 -19 22 4 8 12 -8 22 -17 22 -21z m-688 2 c3
-25 2 -30 -7 -30 -5 0 -11 9 -11 20 -1 20 15 29 18 10z m134 -31 c3 -6 1 -16
-6 -22 -10 -9 -11 -9 -5 2 4 8 2 17 -6 22 -9 6 -10 9 -2 9 6 0 15 -5 19 -11z
m-176 -40 c0 -6 14 -9 33 -8 36 3 57 -6 57 -24 0 -7 -5 -4 -11 7 -7 12 -14 15
-18 7 -8 -13 -81 4 -81 19 0 6 5 10 10 10 6 0 10 -5 10 -11z m-35 -9 c-3 -5
-12 -10 -18 -10 -7 0 -6 4 3 10 19 12 23 12 15 0z m48 -23 c8 7 37 -15 37 -28
0 -5 -8 -10 -17 -10 -17 -1 -17 -2 0 -6 20 -5 23 -23 3 -23 -14 0 -37 29 -49
64 -6 15 -5 17 6 8 8 -7 17 -9 20 -5z m-477 -53 c-3 -9 -6 -18 -6 -20 0 -3 -4
-3 -10 1 -11 7 -2 35 12 35 6 0 7 -7 4 -16z m189 6 c3 -6 -1 -7 -9 -4 -18 7
-21 14 -7 14 6 0 13 -4 16 -10z m279 -6 c9 -24 7 -28 -9 -14 -17 14 -20 30 -6
30 5 0 12 -7 15 -16z m-1174 -58 c0 -3 -4 -8 -10 -11 -5 -3 -10 -1 -10 4 0 6
5 11 10 11 6 0 10 -2 10 -4z m1727 -108 c-2 -18 -4 -6 -4 27 0 33 2 48 4 33 2
-15 2 -42 0 -60z m378 -87 c-5 -17 -15 -21 -46 -21 -21 0 -39 5 -39 10 0 6 6
10 13 10 6 0 23 9 37 20 28 21 45 12 35 -19z m-1765 -17 c0 -2 -9 -8 -19 -13
-14 -8 -22 -7 -31 4 -9 11 -6 14 19 13 17 -1 31 -2 31 -4z m1705 -59 c1 -14
-3 -25 -7 -25 -9 0 -10 4 -13 43 -2 20 1 25 9 17 6 -6 11 -22 11 -35z m-1888
-7 c-3 -8 -6 -5 -6 6 -1 11 2 17 5 13 3 -3 4 -12 1 -19z m39 6 c-3 -8 0 -11
10 -7 7 3 14 1 14 -5 0 -15 -26 -22 -39 -9 -16 16 -14 34 4 34 9 0 14 -6 11
-13z m1904 -43 c0 -5 3 -18 7 -28 6 -15 4 -16 -9 -6 -8 7 -17 10 -20 8 -3 -3
-8 3 -11 15 -4 15 0 20 14 20 10 0 19 -4 19 -9z m0 -81 c0 -13 -1 -13 -10 0
-5 8 -10 22 -10 30 0 13 1 13 10 0 5 -8 10 -22 10 -30z m20 -45 c14 -19 14
-19 -2 -6 -10 7 -18 18 -18 24 0 6 1 8 3 6 1 -2 9 -13 17 -24z m60 15 c0 -5
-2 -10 -4 -10 -3 0 -8 5 -11 10 -3 6 -1 10 4 10 6 0 11 -4 11 -10z m-2 -125
c-3 -3 -9 2 -12 12 -6 14 -5 15 5 6 7 -7 10 -15 7 -18z m147 -313 c4 -10 -6
-5 -24 12 -17 17 -31 31 -31 33 0 10 49 -31 55 -45z m-86 4 c-3 -3 -11 5 -18
17 -13 21 -12 21 5 5 10 -10 16 -20 13 -22z m461 -230 c0 -2 -9 -2 -20 1 -11
3 -20 9 -20 15 0 5 9 4 20 -2 11 -6 20 -12 20 -14z m-651 -89 c-2 -1 -13 -9
-24 -17 -19 -14 -19 -14 -6 3 7 9 18 17 24 17 6 0 8 -1 6 -3z m-74 -52 c-16
-14 -34 -25 -39 -25 -6 0 5 11 24 25 43 32 54 32 15 0z m60 -5 c-3 -5 -14 -10
-23 -9 -14 0 -13 2 3 9 27 11 27 11 20 0z"/>
<path d="M2805 5580 c-3 -5 -1 -10 4 -10 6 0 11 5 11 10 0 6 -2 10 -4 10 -3 0
-8 -4 -11 -10z"/>
<path d="M2465 5100 c-3 -5 -1 -10 4 -10 6 0 11 5 11 10 0 6 -2 10 -4 10 -3 0
-8 -4 -11 -10z"/>
<path d="M2300 3025 c0 -8 4 -15 10 -15 5 0 7 7 4 15 -4 8 -8 15 -10 15 -2 0
-4 -7 -4 -15z"/>
<path d="M2231 2694 c0 -11 3 -14 6 -6 3 7 2 16 -1 19 -3 4 -6 -2 -5 -13z"/>
<path d="M3500 4596 c0 -2 7 -7 16 -10 8 -3 12 -2 9 4 -6 10 -25 14 -25 6z"/>
<path d="M1725 4100 c5 -8 8 -23 7 -32 -4 -24 4 -23 11 2 3 11 -2 25 -11 32
-13 11 -14 11 -7 -2z"/>
<path d="M2100 3936 c0 -2 8 -10 18 -17 15 -13 16 -12 3 4 -13 16 -21 21 -21
13z"/>
<path d="M1327 3861 c-2 -10 -1 -25 4 -32 6 -10 9 -4 9 19 0 36 -5 42 -13 13z"/>
<path d="M1636 3825 c4 -8 11 -15 16 -15 6 0 5 6 -2 15 -7 8 -14 15 -16 15 -2
0 -1 -7 2 -15z"/>
<path d="M1600 3821 c0 -5 7 -12 16 -15 14 -5 15 -4 4 9 -14 17 -20 19 -20 6z"/>
<path d="M3230 3625 c-7 -9 -8 -15 -2 -15 5 0 12 7 16 15 3 8 4 15 2 15 -2 0
-9 -7 -16 -15z"/>
<path d="M3010 3610 c0 -5 7 -10 16 -10 8 0 12 5 9 10 -3 6 -10 10 -16 10 -5
0 -9 -4 -9 -10z"/>
<path d="M3396 3155 c4 -8 8 -15 10 -15 2 0 4 7 4 15 0 8 -4 15 -10 15 -5 0
-7 -7 -4 -15z"/>
<path d="M3334 3026 c11 -9 31 -16 44 -16 15 0 26 -7 29 -20 4 -13 17 -22 42
-26 20 -3 45 -11 56 -18 12 -7 36 -9 60 -5 l40 6 -47 2 c-26 0 -53 7 -62 16
-8 8 -18 15 -23 15 -4 0 -13 8 -20 19 -6 10 -27 21 -45 24 -18 3 -46 8 -63 12
-29 6 -29 6 -11 -9z"/>
<path d="M3020 2960 c-9 -6 -10 -10 -3 -10 6 0 15 5 18 10 8 12 4 12 -15 0z"/>
<path d="M3060 2920 c0 -5 5 -10 11 -10 5 0 7 5 4 10 -3 6 -8 10 -11 10 -2 0
-4 -4 -4 -10z"/>
<path d="M1679 2563 c-13 -16 -12 -17 4 -4 9 7 17 15 17 17 0 8 -8 3 -21 -13z"/>
<path d="M815 2540 c10 -11 20 -18 23 -15 7 6 -18 35 -31 35 -5 0 -2 -9 8 -20z"/>
<path d="M1921 2514 c0 -11 3 -14 6 -6 3 7 2 16 -1 19 -3 4 -6 -2 -5 -13z"/>
<path d="M2640 2224 c0 -8 5 -12 10 -9 6 4 8 11 5 16 -9 14 -15 11 -15 -7z"/>
<path d="M2201 2004 c0 -11 3 -14 6 -6 3 7 2 16 -1 19 -3 4 -6 -2 -5 -13z"/>
<path d="M2222 1845 c0 -16 2 -22 5 -12 2 9 2 23 0 30 -3 6 -5 -1 -5 -18z"/>
<path d="M555 1700 c4 -6 11 -8 16 -5 14 9 11 15 -7 15 -8 0 -12 -5 -9 -10z"/>
<path d="M2456 1465 c4 -8 10 -15 15 -15 4 0 6 7 3 15 -4 8 -10 15 -15 15 -4
0 -6 -7 -3 -15z"/>
<path d="M2492 1416 c1 -10 8 -17 13 -17 15 1 12 24 -3 29 -9 3 -13 -2 -10
-12z"/>
</g>
</svg>
